<svg width="26" height="26" viewBox="0 0 26 26" fill="none" xmlns="http://www.w3.org/2000/svg">
<path d="M0.761719 26H25.2383C25.659 26 26 25.659 26 25.2383V0.761719C26 0.340988 25.659 0 25.2383 0H0.761719C0.340988 0 0 0.340988 0 0.761719V25.2383C0 25.659 0.340988 26 0.761719 26ZM1.52344 24.4766V7.61719H24.4766V24.4766H1.52344ZM24.4766 1.52344V6.09375H1.52344V1.52344H24.4766Z" fill="#4D556A"/>
<path d="M19.0938 4.57031H22.1914C22.6121 4.57031 22.9531 4.22932 22.9531 3.80859C22.9531 3.38786 22.6121 3.04688 22.1914 3.04688H19.0938C18.673 3.04688 18.332 3.38786 18.332 3.80859C18.332 4.22932 18.673 4.57031 19.0938 4.57031Z" fill="#4D556A"/>
<path d="M16.0469 12.2891H13C12.5793 12.2891 12.2383 12.6301 12.2383 13.0508C12.2383 13.4715 12.5793 13.8125 13 13.8125H14.2078L9.95312 18.0672L7.44481 15.5591C7.14905 15.2633 6.6702 15.2614 6.37206 15.5547L4.57031 17.3269V11.5273C4.57031 11.1066 4.22932 10.7656 3.80859 10.7656C3.38786 10.7656 3.04688 11.1066 3.04688 11.5273V22.1914C3.04688 22.6121 3.38786 22.9531 3.80859 22.9531H16.0469C16.4676 22.9531 16.8086 22.6121 16.8086 22.1914C16.8086 21.7707 16.4676 21.4297 16.0469 21.4297H4.57031V19.4637L6.90189 17.1704L9.41457 19.6831C9.56314 19.8319 9.75813 19.9062 9.95312 19.9062C10.1481 19.9062 10.3431 19.8319 10.4917 19.6831L15.2852 14.8898V16.0977C15.2852 16.5184 15.6261 16.8594 16.0469 16.8594C16.4676 16.8594 16.8086 16.5184 16.8086 16.0977V13.0508C16.8086 12.6301 16.4676 12.2891 16.0469 12.2891Z" fill="#4D556A"/>
<path d="M22.1914 12.2891H19.0938C18.673 12.2891 18.332 12.6301 18.332 13.0508C18.332 13.4715 18.673 13.8125 19.0938 13.8125H22.1914C22.6121 13.8125 22.9531 13.4715 22.9531 13.0508C22.9531 12.6301 22.6121 12.2891 22.1914 12.2891Z" fill="#4D556A"/>
<path d="M22.1914 15.3359H19.0938C18.673 15.3359 18.332 15.6769 18.332 16.0977C18.332 16.5184 18.673 16.8594 19.0938 16.8594H22.1914C22.6121 16.8594 22.9531 16.5184 22.9531 16.0977C22.9531 15.6769 22.6121 15.3359 22.1914 15.3359Z" fill="#4D556A"/>
<path d="M22.1914 18.3828H19.0938C18.673 18.3828 18.332 18.7238 18.332 19.1445C18.332 19.5653 18.673 19.9062 19.0938 19.9062H22.1914C22.6121 19.9062 22.9531 19.5653 22.9531 19.1445C22.9531 18.7238 22.6121 18.3828 22.1914 18.3828Z" fill="#4D556A"/>
<path d="M22.1914 21.4297H19.0938C18.673 21.4297 18.332 21.7707 18.332 22.1914C18.332 22.6121 18.673 22.9531 19.0938 22.9531H22.1914C22.6121 22.9531 22.9531 22.6121 22.9531 22.1914C22.9531 21.7707 22.6121 21.4297 22.1914 21.4297Z" fill="#4D556A"/>
</svg>
