<svg width="44" height="44" viewBox="0 0 44 44" fill="none" xmlns="http://www.w3.org/2000/svg">
<rect width="44" height="44" rx="4" fill="#86C255"/>
<path d="M9.76172 35H34.2383C34.659 35 35 34.659 35 34.2383V9.76172C35 9.34099 34.659 9 34.2383 9H9.76172C9.34099 9 9 9.34099 9 9.76172V34.2383C9 34.659 9.34099 35 9.76172 35ZM10.5234 33.4766V16.6172H33.4766V33.4766H10.5234ZM33.4766 10.5234V15.0938H10.5234V10.5234H33.4766Z" fill="white"/>
<path d="M28.0938 13.5703H31.1914C31.6121 13.5703 31.9531 13.2293 31.9531 12.8086C31.9531 12.3879 31.6121 12.0469 31.1914 12.0469H28.0938C27.673 12.0469 27.332 12.3879 27.332 12.8086C27.332 13.2293 27.673 13.5703 28.0938 13.5703Z" fill="white"/>
<path d="M25.0469 21.2891H22C21.5793 21.2891 21.2383 21.6301 21.2383 22.0508C21.2383 22.4715 21.5793 22.8125 22 22.8125H23.2078L18.9531 27.0672L16.4448 24.5591C16.149 24.2633 15.6702 24.2614 15.3721 24.5547L13.5703 26.3269V20.5273C13.5703 20.1066 13.2293 19.7656 12.8086 19.7656C12.3879 19.7656 12.0469 20.1066 12.0469 20.5273V31.1914C12.0469 31.6121 12.3879 31.9531 12.8086 31.9531H25.0469C25.4676 31.9531 25.8086 31.6121 25.8086 31.1914C25.8086 30.7707 25.4676 30.4297 25.0469 30.4297H13.5703V28.4637L15.9019 26.1704L18.4146 28.6831C18.5631 28.8319 18.7581 28.9062 18.9531 28.9062C19.1481 28.9062 19.3431 28.8319 19.4917 28.6831L24.2852 23.8898V25.0977C24.2852 25.5184 24.6261 25.8594 25.0469 25.8594C25.4676 25.8594 25.8086 25.5184 25.8086 25.0977V22.0508C25.8086 21.6301 25.4676 21.2891 25.0469 21.2891Z" fill="white"/>
<path d="M31.1914 21.2891H28.0938C27.673 21.2891 27.332 21.6301 27.332 22.0508C27.332 22.4715 27.673 22.8125 28.0938 22.8125H31.1914C31.6121 22.8125 31.9531 22.4715 31.9531 22.0508C31.9531 21.6301 31.6121 21.2891 31.1914 21.2891Z" fill="white"/>
<path d="M31.1914 24.3359H28.0938C27.673 24.3359 27.332 24.6769 27.332 25.0977C27.332 25.5184 27.673 25.8594 28.0938 25.8594H31.1914C31.6121 25.8594 31.9531 25.5184 31.9531 25.0977C31.9531 24.6769 31.6121 24.3359 31.1914 24.3359Z" fill="white"/>
<path d="M31.1914 27.3828H28.0938C27.673 27.3828 27.332 27.7238 27.332 28.1445C27.332 28.5653 27.673 28.9062 28.0938 28.9062H31.1914C31.6121 28.9062 31.9531 28.5653 31.9531 28.1445C31.9531 27.7238 31.6121 27.3828 31.1914 27.3828Z" fill="white"/>
<path d="M31.1914 30.4297H28.0938C27.673 30.4297 27.332 30.7707 27.332 31.1914C27.332 31.6121 27.673 31.9531 28.0938 31.9531H31.1914C31.6121 31.9531 31.9531 31.6121 31.9531 31.1914C31.9531 30.7707 31.6121 30.4297 31.1914 30.4297Z" fill="white"/>
</svg>
