<svg width="10" height="6" viewBox="0 0 10 6" fill="none" xmlns="http://www.w3.org/2000/svg">
<path d="M0.000172193 0.705711C-0.00307852 0.568144 0.039766 0.433053 0.122815 0.319218C0.205864 0.205383 0.325013 0.11846 0.46359 0.070536C0.602167 0.0226117 0.753323 0.0160665 0.896081 0.0518101C1.03884 0.0875538 1.16603 0.16381 1.26007 0.269978L4.9885 4.32087L8.71562 0.269978C8.77361 0.196536 8.84723 0.135031 8.93194 0.0893133C9.01666 0.0435956 9.11062 0.0146507 9.20791 0.00429086C9.3052 -0.00606902 9.40372 0.00237956 9.49733 0.0291074C9.59095 0.0558353 9.67766 0.100266 9.75197 0.159619C9.82628 0.218971 9.88656 0.291966 9.92917 0.374032C9.97177 0.456098 9.9957 0.545468 9.99947 0.636544C10.0032 0.72762 9.98683 0.81844 9.95115 0.903317C9.91547 0.988195 9.86135 1.0653 9.79217 1.12981L5.52887 5.76771C5.46209 5.84054 5.37921 5.89903 5.2858 5.93913C5.19239 5.97923 5.09071 6 4.98784 6C4.88497 6 4.7833 5.97923 4.68989 5.93913C4.59648 5.89903 4.51351 5.84054 4.44674 5.76771L0.179338 1.12981C0.0675329 1.01265 0.0039692 0.862371 8.12252e-06 0.705711H0.000172193Z" fill="#4D556A"/>
</svg>
