<svg width="44" height="44" viewBox="0 0 44 44" fill="none" xmlns="http://www.w3.org/2000/svg">
<rect width="44" height="44" rx="4" fill="#86C255"/>
<path d="M33.5815 28.7233C35.267 26.4757 35.0886 23.2639 33.0456 21.2209C32.5674 20.7428 32.0251 20.3671 31.4462 20.0932V15.043L24.4033 8H10.0088V36H31.4463V30.4693C31.7855 30.3088 32.1121 30.1132 32.4207 29.8826L36.824 34.3347L37.9905 33.181L33.5815 28.7233ZM24.8838 10.8007L28.6456 14.5625H24.8838V10.8007ZM29.8057 34.3594H11.6494V9.64062H23.2432V16.2031H29.8057V19.6002C28.0755 19.3525 26.2532 19.8927 24.925 21.2209C22.6862 23.4598 22.6862 27.1027 24.925 29.3416C26.2378 30.6544 28.0531 31.2131 29.8057 30.9623V34.3594ZM31.8856 28.1815C30.2864 29.7806 27.6843 29.7806 26.0852 28.1815C24.486 26.5823 24.486 23.9802 26.0852 22.381C27.6843 20.7818 30.2864 20.7817 31.8856 22.381C33.4848 23.9802 33.4848 26.5823 31.8856 28.1815Z" fill="white"/>
<path d="M24.8848 17.8984H13.291V19.5391H24.8848V17.8984Z" fill="white"/>
<path d="M21.6035 21.1797H13.291V22.8203H21.6035V21.1797Z" fill="white"/>
<path d="M21.6035 27.7422H13.291V29.3828H21.6035V27.7422Z" fill="white"/>
<path d="M21.6035 24.4609H13.291V26.1016H21.6035V24.4609Z" fill="white"/>
</svg>
