<svg width="28" height="28" viewBox="0 0 28 28" fill="none" xmlns="http://www.w3.org/2000/svg">
<path d="M23.5815 20.7233C25.267 18.4757 25.0886 15.2639 23.0456 13.2209C22.5674 12.7428 22.0251 12.3671 21.4462 12.0932V7.04304L14.4033 0H0.00878906V28H21.4463V22.4693C21.7855 22.3088 22.1121 22.1132 22.4207 21.8826L26.824 26.3347L27.9905 25.181L23.5815 20.7233ZM14.8838 2.80071L18.6456 6.5625H14.8838V2.80071ZM19.8057 26.3594H1.64941V1.64062H13.2432V8.20312H19.8057V11.6002C18.0755 11.3525 16.2532 11.8927 14.925 13.2209C12.6862 15.4598 12.6862 19.1027 14.925 21.3416C16.2378 22.6544 18.0531 23.2131 19.8057 22.9623V26.3594ZM21.8856 20.1815C20.2864 21.7806 17.6843 21.7806 16.0852 20.1815C14.486 18.5823 14.486 15.9802 16.0852 14.381C17.6843 12.7818 20.2864 12.7817 21.8856 14.381C23.4848 15.9802 23.4848 18.5823 21.8856 20.1815Z" fill="#4D556A"/>
<path d="M14.8848 9.89844H3.29102V11.5391H14.8848V9.89844Z" fill="#4D556A"/>
<path d="M11.6035 13.1797H3.29102V14.8203H11.6035V13.1797Z" fill="#4D556A"/>
<path d="M11.6035 19.7422H3.29102V21.3828H11.6035V19.7422Z" fill="#4D556A"/>
<path d="M11.6035 16.4609H3.29102V18.1016H11.6035V16.4609Z" fill="#4D556A"/>
</svg>
