<svg width="28" height="28" viewBox="0 0 28 28" fill="none" xmlns="http://www.w3.org/2000/svg">
<path d="M24.0896 1.75H17.0354C15.8445 1.75 14.875 2.7195 14.875 3.91037V12.7146C14.875 13.9055 15.8445 14.875 17.0354 14.875H24.0896C25.2805 14.875 26.25 13.9055 26.25 12.7146V3.91037C26.25 2.7195 25.2805 1.75 24.0896 1.75ZM17.0354 13.125C16.8087 13.125 16.625 12.9413 16.625 12.7146V3.91037C16.625 3.68375 16.8087 3.5 17.0354 3.5H24.0896C24.3163 3.5 24.5 3.68375 24.5 3.91037V12.7146C24.5 12.9413 24.3163 13.125 24.0896 13.125H17.0354Z" fill="white"/>
<path d="M24.0896 16.625H17.0354C15.8445 16.625 14.875 17.5945 14.875 18.7854V24.0896C14.875 25.2805 15.8445 26.25 17.0354 26.25H24.0896C25.2805 26.25 26.25 25.2805 26.25 24.0896V18.7854C26.25 17.5945 25.2805 16.625 24.0896 16.625ZM17.0354 24.5C16.8087 24.5 16.625 24.3163 16.625 24.0896V18.7854C16.625 18.5587 16.8087 18.375 17.0354 18.375H24.0896C24.3163 18.375 24.5 18.5587 24.5 18.7854V24.0896C24.5 24.3163 24.3163 24.5 24.0896 24.5H17.0354Z" fill="white"/>
<path d="M10.9646 13.125H3.91037C2.7195 13.125 1.75 14.0945 1.75 15.2854V24.0896C1.75 25.2805 2.7195 26.25 3.91037 26.25H10.9646C12.1555 26.25 13.125 25.2805 13.125 24.0896V15.2854C13.125 14.0945 12.1555 13.125 10.9646 13.125ZM3.91037 24.5C3.68375 24.5 3.5 24.3163 3.5 24.0896V15.2854C3.5 15.0587 3.68375 14.875 3.91037 14.875H10.9646C11.1913 14.875 11.375 15.0587 11.375 15.2854V24.0896C11.375 24.3163 11.1913 24.5 10.9646 24.5H3.91037Z" fill="white"/>
<path d="M10.9646 1.75H3.91037C2.7195 1.75 1.75 2.7195 1.75 3.91037V9.21463C1.75 10.4055 2.7195 11.375 3.91037 11.375H10.9646C12.1555 11.375 13.125 10.4055 13.125 9.21463V3.91037C13.125 2.7195 12.1555 1.75 10.9646 1.75ZM3.91037 9.625C3.68375 9.625 3.5 9.44125 3.5 9.21463V3.91037C3.5 3.68375 3.68375 3.5 3.91037 3.5H10.9646C11.1913 3.5 11.375 3.68375 11.375 3.91037V9.21463C11.375 9.44125 11.1913 9.625 10.9646 9.625H3.91037Z" fill="white"/>
</svg>
