<svg width="44" height="44" viewBox="0 0 44 44" fill="none" xmlns="http://www.w3.org/2000/svg">
<rect width="44" height="44" rx="4" fill="#86C255"/>
<path d="M32.0896 9.75H25.0354C23.8445 9.75 22.875 10.7195 22.875 11.9104V20.7146C22.875 21.9055 23.8445 22.875 25.0354 22.875H32.0896C33.2805 22.875 34.25 21.9055 34.25 20.7146V11.9104C34.25 10.7195 33.2805 9.75 32.0896 9.75ZM25.0354 21.125C24.8087 21.125 24.625 20.9413 24.625 20.7146V11.9104C24.625 11.6837 24.8087 11.5 25.0354 11.5H32.0896C32.3163 11.5 32.5 11.6837 32.5 11.9104V20.7146C32.5 20.9413 32.3163 21.125 32.0896 21.125H25.0354Z" fill="white"/>
<path d="M32.0896 24.625H25.0354C23.8445 24.625 22.875 25.5945 22.875 26.7854V32.0896C22.875 33.2805 23.8445 34.25 25.0354 34.25H32.0896C33.2805 34.25 34.25 33.2805 34.25 32.0896V26.7854C34.25 25.5945 33.2805 24.625 32.0896 24.625ZM25.0354 32.5C24.8087 32.5 24.625 32.3163 24.625 32.0896V26.7854C24.625 26.5587 24.8087 26.375 25.0354 26.375H32.0896C32.3163 26.375 32.5 26.5587 32.5 26.7854V32.0896C32.5 32.3163 32.3163 32.5 32.0896 32.5H25.0354Z" fill="white"/>
<path d="M18.9646 21.125H11.9104C10.7195 21.125 9.75 22.0945 9.75 23.2854V32.0896C9.75 33.2805 10.7195 34.25 11.9104 34.25H18.9646C20.1555 34.25 21.125 33.2805 21.125 32.0896V23.2854C21.125 22.0945 20.1555 21.125 18.9646 21.125ZM11.9104 32.5C11.6837 32.5 11.5 32.3163 11.5 32.0896V23.2854C11.5 23.0587 11.6837 22.875 11.9104 22.875H18.9646C19.1913 22.875 19.375 23.0587 19.375 23.2854V32.0896C19.375 32.3163 19.1913 32.5 18.9646 32.5H11.9104Z" fill="white"/>
<path d="M18.9646 9.75H11.9104C10.7195 9.75 9.75 10.7195 9.75 11.9104V17.2146C9.75 18.4055 10.7195 19.375 11.9104 19.375H18.9646C20.1555 19.375 21.125 18.4055 21.125 17.2146V11.9104C21.125 10.7195 20.1555 9.75 18.9646 9.75ZM11.9104 17.625C11.6837 17.625 11.5 17.4413 11.5 17.2146V11.9104C11.5 11.6837 11.6837 11.5 11.9104 11.5H18.9646C19.1913 11.5 19.375 11.6837 19.375 11.9104V17.2146C19.375 17.4413 19.1913 17.625 18.9646 17.625H11.9104Z" fill="white"/>
</svg>
