<svg width="40" height="36" viewBox="0 0 40 36" fill="none" xmlns="http://www.w3.org/2000/svg">
<rect width="40" height="36" rx="3" fill="#4D556A"/>
<path d="M18.6689 10.9658H21.343V11.4158H22.3087V10.9028C22.3088 10.405 21.9041 10 21.4065 10H18.6055C18.1079 10 17.7031 10.405 17.7031 10.9028V11.4158H18.6689V10.9658Z" fill="white"/>
<path d="M24.5382 15.2422H15.4722C15.2238 15.2422 15.0283 15.4541 15.0483 15.7018L15.8062 25.0739C15.8485 25.597 16.2849 26 16.8092 26H23.2011C23.7254 26 24.1618 25.597 24.204 25.0737L24.962 15.7018C24.9821 15.4541 24.7866 15.2422 24.5382 15.2422V15.2422ZM17.6674 25.0004C17.6573 25.001 17.6472 25.0013 17.6372 25.0013C17.384 25.0013 17.1715 24.8042 17.1557 24.5481L16.6807 16.8541C16.6644 16.5879 16.8669 16.3588 17.133 16.3424C17.3983 16.3263 17.6284 16.5283 17.6447 16.7947L18.1196 24.4886C18.1361 24.7549 17.9335 24.9839 17.6674 25.0004V25.0004ZM20.4935 24.5184C20.4935 24.785 20.2773 25.0012 20.0106 25.0012C19.7438 25.0012 19.5277 24.785 19.5277 24.5184V16.8243C19.5277 16.5576 19.7438 16.3414 20.0106 16.3414C20.2772 16.3414 20.4935 16.5576 20.4935 16.8243V24.5184ZM23.3297 16.8528L22.8762 24.5468C22.8612 24.8033 22.6483 25.0012 22.3946 25.0012C22.3851 25.0012 22.3754 25.001 22.3658 25.0005C22.0996 24.9847 21.8964 24.7562 21.9122 24.49L22.3655 16.7959C22.3812 16.5297 22.609 16.3265 22.8759 16.3423C23.1422 16.3579 23.3453 16.5865 23.3297 16.8528V16.8528Z" fill="white"/>
<path d="M26.2077 13.7522L25.8906 12.8015C25.807 12.5509 25.5724 12.3818 25.3081 12.3818H14.7015C14.4374 12.3818 14.2026 12.5509 14.1191 12.8015L13.802 13.7522C13.7408 13.9355 13.8204 14.1226 13.969 14.2158C14.0295 14.2538 14.1012 14.2766 14.1799 14.2766H25.8298C25.9086 14.2766 25.9803 14.2538 26.0408 14.2157C26.1893 14.1224 26.2689 13.9354 26.2077 13.7522Z" fill="white"/>
</svg>
