<svg width="18" height="18" viewBox="0 0 18 18" fill="none" xmlns="http://www.w3.org/2000/svg">
<g clip-path="url(#clip0_289_6133)">
<path d="M10.5043 11.0283C10.0565 11.3269 9.53631 11.4847 9 11.4847C8.46373 11.4847 7.94355 11.3269 7.49573 11.0283L0.119848 6.11092C0.0789258 6.08364 0.0390586 6.05519 0 6.02594V14.0837C0 15.0075 0.749707 15.7407 1.65702 15.7407H16.3429C17.2668 15.7407 18 14.991 18 14.0837V6.02591C17.9608 6.05523 17.9209 6.08374 17.8799 6.11106L10.5043 11.0283Z" fill="#5D6276"/>
<path d="M0.704883 5.23346L8.08077 10.1509C8.35998 10.3371 8.67997 10.4301 8.99996 10.4301C9.31999 10.4301 9.64002 10.337 9.91923 10.1509L17.2951 5.23346C17.7365 4.93938 18 4.44719 18 3.91598C18 3.00258 17.2569 2.25952 16.3435 2.25952H1.65646C0.743098 2.25956 0 3.00262 0 3.91686C0 4.44719 0.263531 4.93938 0.704883 5.23346Z" fill="#5D6276"/>
</g>
<defs>
<clipPath id="clip0_289_6133">
<rect width="18" height="18" fill="white"/>
</clipPath>
</defs>
</svg>
