<svg width="28" height="28" viewBox="0 0 28 28" fill="none" xmlns="http://www.w3.org/2000/svg">
<g clip-path="url(#clip0_289_9308)">
<path d="M25.375 2.625H21.6562V1.75C21.6562 1.51794 21.5641 1.29538 21.4 1.13128C21.2359 0.967187 21.0133 0.875 20.7812 0.875C20.5492 0.875 20.3266 0.967187 20.1625 1.13128C19.9984 1.29538 19.9062 1.51794 19.9062 1.75V2.625H8.09375V1.75C8.09375 1.51794 8.00156 1.29538 7.83747 1.13128C7.67337 0.967187 7.45081 0.875 7.21875 0.875C6.98669 0.875 6.76413 0.967187 6.60003 1.13128C6.43594 1.29538 6.34375 1.51794 6.34375 1.75V2.625H2.625C1.92881 2.625 1.26113 2.90156 0.768845 3.39384C0.276562 3.88613 0 4.55381 0 5.25L0 24.5C0 25.1962 0.276562 25.8639 0.768845 26.3562C1.26113 26.8484 1.92881 27.125 2.625 27.125H25.375C26.0712 27.125 26.7389 26.8484 27.2312 26.3562C27.7234 25.8639 28 25.1962 28 24.5V5.25C28 4.55381 27.7234 3.88613 27.2312 3.39384C26.7389 2.90156 26.0712 2.625 25.375 2.625ZM2.625 4.375H6.34375V5.25C6.34375 5.48206 6.43594 5.70462 6.60003 5.86872C6.76413 6.03281 6.98669 6.125 7.21875 6.125C7.45081 6.125 7.67337 6.03281 7.83747 5.86872C8.00156 5.70462 8.09375 5.48206 8.09375 5.25V4.375H19.9062V5.25C19.9062 5.48206 19.9984 5.70462 20.1625 5.86872C20.3266 6.03281 20.5492 6.125 20.7812 6.125C21.0133 6.125 21.2359 6.03281 21.4 5.86872C21.5641 5.70462 21.6562 5.48206 21.6562 5.25V4.375H25.375C25.6071 4.375 25.8296 4.46719 25.9937 4.63128C26.1578 4.79538 26.25 5.01794 26.25 5.25V7.4375H1.75V5.25C1.75 5.01794 1.84219 4.79538 2.00628 4.63128C2.17038 4.46719 2.39294 4.375 2.625 4.375ZM25.375 25.375H2.625C2.39294 25.375 2.17038 25.2828 2.00628 25.1187C1.84219 24.9546 1.75 24.7321 1.75 24.5V9.1875H26.25V24.5C26.25 24.7321 26.1578 24.9546 25.9937 25.1187C25.8296 25.2828 25.6071 25.375 25.375 25.375Z" fill="#4D556A"/>
<path d="M19.6865 11.9907C19.5019 11.8505 19.2693 11.7893 19.0396 11.8205C18.8099 11.8516 18.602 11.9726 18.4615 12.1569L12.0696 20.5219L9.4971 17.7744C9.41839 17.6906 9.32393 17.623 9.21911 17.5756C9.11429 17.5282 9.00116 17.502 8.88619 17.4983C8.77122 17.4947 8.65666 17.5137 8.54904 17.5543C8.44142 17.5949 8.34286 17.6563 8.25898 17.7351C8.17509 17.8138 8.10754 17.9082 8.06016 18.0131C8.01279 18.1179 7.98652 18.231 7.98286 18.346C7.97921 18.4609 7.99823 18.5755 8.03885 18.6831C8.07947 18.7907 8.14089 18.8893 8.2196 18.9732L11.5009 22.4732C11.5828 22.5604 11.6818 22.6298 11.7917 22.6772C11.9015 22.7246 12.0199 22.749 12.1396 22.7488H12.1834C12.3106 22.7421 12.4349 22.7078 12.5475 22.6481C12.6601 22.5884 12.7583 22.5048 12.8352 22.4032L19.8352 13.2157C19.9773 13.0333 20.0414 12.802 20.0136 12.5725C19.9857 12.343 19.8681 12.1338 19.6865 11.9907Z" fill="#4D556A"/>
</g>
<defs>
<clipPath id="clip0_289_9308">
<rect width="28" height="28" fill="white"/>
</clipPath>
</defs>
</svg>
