<svg width="44" height="44" viewBox="0 0 44 44" fill="none" xmlns="http://www.w3.org/2000/svg">
<rect width="44" height="44" rx="4" fill="#86C255"/>
<g clip-path="url(#clip0_289_1236)">
<path d="M33.375 9.625H29.6562V8.75C29.6562 8.51794 29.5641 8.29538 29.4 8.13128C29.2359 7.96719 29.0133 7.875 28.7812 7.875C28.5492 7.875 28.3266 7.96719 28.1625 8.13128C27.9984 8.29538 27.9062 8.51794 27.9062 8.75V9.625H16.0938V8.75C16.0938 8.51794 16.0016 8.29538 15.8375 8.13128C15.6734 7.96719 15.4508 7.875 15.2188 7.875C14.9867 7.875 14.7641 7.96719 14.6 8.13128C14.4359 8.29538 14.3438 8.51794 14.3438 8.75V9.625H10.625C9.92881 9.625 9.26113 9.90156 8.76884 10.3938C8.27656 10.8861 8 11.5538 8 12.25V31.5C8 32.1962 8.27656 32.8639 8.76884 33.3562C9.26113 33.8484 9.92881 34.125 10.625 34.125H33.375C34.0712 34.125 34.7389 33.8484 35.2312 33.3562C35.7234 32.8639 36 32.1962 36 31.5V12.25C36 11.5538 35.7234 10.8861 35.2312 10.3938C34.7389 9.90156 34.0712 9.625 33.375 9.625ZM10.625 11.375H14.3438V12.25C14.3438 12.4821 14.4359 12.7046 14.6 12.8687C14.7641 13.0328 14.9867 13.125 15.2188 13.125C15.4508 13.125 15.6734 13.0328 15.8375 12.8687C16.0016 12.7046 16.0938 12.4821 16.0938 12.25V11.375H27.9062V12.25C27.9062 12.4821 27.9984 12.7046 28.1625 12.8687C28.3266 13.0328 28.5492 13.125 28.7812 13.125C29.0133 13.125 29.2359 13.0328 29.4 12.8687C29.5641 12.7046 29.6562 12.4821 29.6562 12.25V11.375H33.375C33.6071 11.375 33.8296 11.4672 33.9937 11.6313C34.1578 11.7954 34.25 12.0179 34.25 12.25V14.4375H9.75V12.25C9.75 12.0179 9.84219 11.7954 10.0063 11.6313C10.1704 11.4672 10.3929 11.375 10.625 11.375ZM33.375 32.375H10.625C10.3929 32.375 10.1704 32.2828 10.0063 32.1187C9.84219 31.9546 9.75 31.7321 9.75 31.5V16.1875H34.25V31.5C34.25 31.7321 34.1578 31.9546 33.9937 32.1187C33.8296 32.2828 33.6071 32.375 33.375 32.375Z" fill="white"/>
<path d="M27.6865 18.9907C27.5019 18.8505 27.2693 18.7893 27.0396 18.8205C26.8099 18.8516 26.602 18.9726 26.4615 19.1569L20.0696 27.5219L17.4971 24.7744C17.4184 24.6906 17.3239 24.623 17.2191 24.5756C17.1143 24.5282 17.0012 24.502 16.8862 24.4983C16.7712 24.4947 16.6567 24.5137 16.549 24.5543C16.4414 24.5949 16.3429 24.6563 16.259 24.7351C16.1751 24.8138 16.1075 24.9082 16.0602 25.0131C16.0128 25.1179 15.9865 25.231 15.9829 25.346C15.9792 25.4609 15.9982 25.5755 16.0389 25.6831C16.0795 25.7907 16.1409 25.8893 16.2196 25.9732L19.5009 29.4732C19.5828 29.5604 19.6818 29.6298 19.7917 29.6772C19.9015 29.7246 20.0199 29.749 20.1396 29.7488H20.1834C20.3106 29.7421 20.4349 29.7078 20.5475 29.6481C20.6601 29.5884 20.7583 29.5048 20.8352 29.4032L27.8352 20.2157C27.9773 20.0333 28.0414 19.802 28.0136 19.5725C27.9857 19.343 27.8681 19.1338 27.6865 18.9907Z" fill="white"/>
</g>
<defs>
<clipPath id="clip0_289_1236">
<rect width="28" height="28" fill="white" transform="translate(8 7)"/>
</clipPath>
</defs>
</svg>
