<svg width="14" height="18" viewBox="0 0 14 18" fill="none" xmlns="http://www.w3.org/2000/svg">
<path d="M11.7661 7.4136V5.29596C11.7661 2.6489 9.64844 0.53125 7.00138 0.53125C4.35432 0.53125 2.23667 2.6489 2.23667 5.29596V7.4136C1.33667 7.4136 0.648438 8.10184 0.648438 9.00184V15.8842C0.648438 16.7313 1.33667 17.4724 2.23667 17.4724H11.7661C12.6661 17.4724 13.3543 16.7313 13.3543 15.8842V9.00184C13.3543 8.10184 12.6661 7.4136 11.7661 7.4136ZM3.2955 5.29596C3.2955 3.23125 4.93667 1.59007 7.00138 1.59007C9.06609 1.59007 10.7073 3.23125 10.7073 5.29596V7.4136H3.2955V5.29596ZM7.53079 13.1313V14.296C7.53079 14.6136 7.31903 14.8254 7.00138 14.8254C6.68373 14.8254 6.47197 14.6136 6.47197 14.296V13.1313C5.83667 12.9195 5.41314 12.3371 5.41314 11.6489C5.41314 10.7489 6.10138 10.0607 7.00138 10.0607C7.90138 10.0607 8.58961 10.7489 8.58961 11.6489C8.58961 12.3371 8.16608 12.9195 7.53079 13.1313Z" fill="#5D6276"/>
</svg>
