<svg width="20" height="20" viewBox="0 0 20 20" fill="none" xmlns="http://www.w3.org/2000/svg">
<g clip-path="url(#clip0_289_1605)">
<path d="M10.7812 20H0.976562C0.717562 20 0.46917 19.8971 0.286029 19.714C0.102888 19.5308 0 19.2824 0 19.0234L0 0.976562C0 0.717562 0.102888 0.46917 0.286029 0.286029C0.46917 0.102888 0.717562 0 0.976562 0L10.7812 0C11.0403 0 11.2886 0.102888 11.4718 0.286029C11.6549 0.46917 11.7578 0.717562 11.7578 0.976562C11.7578 1.23556 11.6549 1.48396 11.4718 1.6671C11.2886 1.85024 11.0403 1.95312 10.7812 1.95312H1.95312V18.0469H10.7812C11.0403 18.0469 11.2886 18.1498 11.4718 18.3329C11.6549 18.516 11.7578 18.7644 11.7578 19.0234C11.7578 19.2824 11.6549 19.5308 11.4718 19.714C11.2886 19.8971 11.0403 20 10.7812 20Z" fill="#4D556A"/>
<path d="M18.7684 10.9766H7.30469C7.04569 10.9766 6.79729 10.8737 6.61415 10.6905C6.43101 10.5074 6.32813 10.259 6.32812 10C6.32813 9.741 6.43101 9.49261 6.61415 9.30947C6.79729 9.12632 7.04569 9.02344 7.30469 9.02344H18.7684C19.0274 9.02344 19.2758 9.12632 19.4589 9.30947C19.642 9.49261 19.7449 9.741 19.7449 10C19.7449 10.259 19.642 10.5074 19.4589 10.6905C19.2758 10.8737 19.0274 10.9766 18.7684 10.9766Z" fill="#4D556A"/>
<path d="M14.0649 15.9188C13.8716 15.9188 13.6826 15.8615 13.5219 15.7541C13.3612 15.6466 13.236 15.4939 13.1622 15.3152C13.0883 15.1366 13.0692 14.94 13.1072 14.7505C13.1451 14.5609 13.2385 14.3869 13.3754 14.2504L17.6395 10.0001L13.3754 5.74967C13.282 5.65974 13.2075 5.55211 13.1561 5.43305C13.1047 5.314 13.0776 5.1859 13.0762 5.05625C13.0749 4.92659 13.0994 4.79796 13.1483 4.67787C13.1972 4.55778 13.2695 4.44862 13.361 4.35678C13.4526 4.26494 13.5615 4.19224 13.6814 4.14294C13.8013 4.09363 13.9299 4.0687 14.0595 4.0696C14.1892 4.0705 14.3174 4.09722 14.4366 4.14819C14.5558 4.19916 14.6637 4.27336 14.754 4.36646L19.7125 9.30826C19.8036 9.39899 19.8759 9.5068 19.9252 9.62552C19.9745 9.74423 19.9998 9.87151 19.9998 10.0001C19.9998 10.1286 19.9745 10.2559 19.9252 10.3746C19.8759 10.4933 19.8036 10.6011 19.7125 10.6919L14.754 15.6336C14.6635 15.7242 14.5561 15.7959 14.4378 15.8449C14.3196 15.8938 14.1929 15.9189 14.0649 15.9188Z" fill="#4D556A"/>
</g>
<defs>
<clipPath id="clip0_289_1605">
<rect width="20" height="20" fill="white"/>
</clipPath>
</defs>
</svg>
