<svg width="26" height="26" viewBox="0 0 26 26" fill="none" xmlns="http://www.w3.org/2000/svg">
<g clip-path="url(#clip0_289_6427)">
<path d="M9.74967 10.8333C6.76292 10.8333 4.33301 8.40342 4.33301 5.41667C4.33301 2.42992 6.76292 0 9.74967 0C12.7364 0 15.1663 2.42992 15.1663 5.41667C15.1663 8.40342 12.7364 10.8333 9.74967 10.8333ZM9.74967 1.08333C7.35984 1.08333 5.41634 3.02683 5.41634 5.41667C5.41634 7.8065 7.35984 9.75 9.74967 9.75C12.1395 9.75 14.083 7.8065 14.083 5.41667C14.083 3.02683 12.1395 1.08333 9.74967 1.08333Z" fill="#4D556A"/>
<path d="M9.20833 22.75H0.541667C0.242667 22.75 0 22.5073 0 22.2083V17.875C0 15.1873 2.18725 13 4.875 13H11.375C11.674 13 11.9167 13.2427 11.9167 13.5417C11.9167 13.8407 11.674 14.0833 11.375 14.0833H4.875C2.78417 14.0833 1.08333 15.7842 1.08333 17.875V21.6667H9.20833C9.50733 21.6667 9.75 21.9093 9.75 22.2083C9.75 22.5073 9.50733 22.75 9.20833 22.75Z" fill="#4D556A"/>
<path d="M18.4163 21.6667C16.9235 21.6667 15.708 20.4512 15.708 18.9583C15.708 17.4655 16.9235 16.25 18.4163 16.25C19.9092 16.25 21.1247 17.4655 21.1247 18.9583C21.1247 20.4512 19.9092 21.6667 18.4163 21.6667ZM18.4163 17.3333C17.5204 17.3333 16.7913 18.0624 16.7913 18.9583C16.7913 19.8542 17.5204 20.5833 18.4163 20.5833C19.3123 20.5833 20.0413 19.8542 20.0413 18.9583C20.0413 18.0624 19.3123 17.3333 18.4163 17.3333Z" fill="#4D556A"/>
<path d="M19.28 26.0002H17.5521C16.9931 26.0002 16.5294 25.581 16.4741 25.0241L16.3366 23.6472C16.0083 23.501 15.6952 23.319 15.3995 23.1023L14.1341 23.6732C13.6261 23.9051 13.0291 23.7111 12.7507 23.2269L11.8873 21.7308C11.6078 21.2466 11.74 20.6356 12.1928 20.3095L13.3076 19.5078C13.2859 19.3399 13.2707 19.1536 13.2707 18.9586C13.2707 18.7636 13.2859 18.5761 13.3076 18.4093L12.1928 17.6076C11.74 17.2816 11.6078 16.6706 11.8873 16.1863L12.7507 14.6902C13.0302 14.206 13.6239 14.0142 14.1341 14.2439L15.3995 14.8148C15.6952 14.5981 16.0083 14.4161 16.3366 14.2699L16.4741 12.893C16.5294 12.3372 16.9931 11.918 17.5521 11.918H19.28C19.839 11.918 20.3026 12.3372 20.3579 12.8941L20.4955 14.271C20.8248 14.4172 21.1379 14.6003 21.4326 14.8159L22.6979 14.245C23.2081 14.0164 23.8029 14.2081 24.0813 14.6913L24.9447 16.1874C25.2242 16.6716 25.0921 17.2826 24.6392 17.6087L23.5245 18.4104C23.5461 18.5783 23.5613 18.7646 23.5613 18.9596C23.5613 19.1546 23.5461 19.3421 23.5245 19.5089L24.6392 20.3106C25.0921 20.6366 25.2242 21.2476 24.9447 21.7319L24.0824 23.2269C23.8029 23.7101 23.2103 23.904 22.699 23.6732L21.4336 23.1023C21.1379 23.319 20.8248 23.501 20.4966 23.6472L20.3579 25.0252C20.3026 25.581 19.839 26.0002 19.28 26.0002ZM15.4753 21.9323C15.5999 21.9323 15.7234 21.9756 15.8231 22.0591C16.1903 22.3667 16.5966 22.6018 17.0288 22.76C17.2238 22.8315 17.3614 23.0081 17.382 23.215L17.5531 24.9169H19.2811L19.4511 23.215C19.4717 23.0081 19.6093 22.8315 19.8043 22.76C20.2366 22.6018 20.6428 22.3656 21.0101 22.0591C21.1704 21.9258 21.3914 21.8955 21.5799 21.9811L23.1442 22.6874L24.0076 21.1913L22.6231 20.1968C22.4541 20.0755 22.3707 19.8675 22.4054 19.6627C22.4455 19.4341 22.478 19.2012 22.478 18.9607C22.478 18.7202 22.4455 18.4873 22.4054 18.2587C22.3696 18.054 22.4541 17.8471 22.6231 17.7246L24.0076 16.7301L23.1442 15.2341L21.5799 15.9393C21.3903 16.0249 21.1693 15.9946 21.009 15.8613C20.6428 15.5536 20.2376 15.3186 19.8032 15.1604C19.6082 15.0889 19.4706 14.9123 19.4501 14.7054L19.28 13.0002H17.5521L17.382 14.7021C17.3614 14.9091 17.2238 15.0856 17.0288 15.1571C16.5966 15.3153 16.1903 15.5515 15.8231 15.8581C15.6638 15.9913 15.4428 16.0227 15.2532 15.9361L13.6889 15.2297L12.8255 16.7258L14.21 17.7203C14.379 17.8416 14.4624 18.0496 14.4277 18.2544C14.3876 18.483 14.3551 18.7159 14.3551 18.9564C14.3551 19.1969 14.3876 19.4298 14.4277 19.6584C14.4635 19.8631 14.379 20.0701 14.21 20.1925L12.8255 21.187L13.6889 22.6831L15.2532 21.9778C15.3247 21.9475 15.3995 21.9323 15.4753 21.9323Z" fill="#4D556A"/>
</g>
<defs>
<clipPath id="clip0_289_6427">
<rect width="26" height="26" fill="white"/>
</clipPath>
</defs>
</svg>
