<svg width="44" height="44" viewBox="0 0 44 44" fill="none" xmlns="http://www.w3.org/2000/svg">
<rect width="44" height="44" rx="4" fill="#86C255"/>
<g clip-path="url(#clip0_289_7010)">
<path d="M18.7497 19.8333C15.7629 19.8333 13.333 17.4034 13.333 14.4167C13.333 11.4299 15.7629 9 18.7497 9C21.7364 9 24.1663 11.4299 24.1663 14.4167C24.1663 17.4034 21.7364 19.8333 18.7497 19.8333ZM18.7497 10.0833C16.3598 10.0833 14.4163 12.0268 14.4163 14.4167C14.4163 16.8065 16.3598 18.75 18.7497 18.75C21.1395 18.75 23.083 16.8065 23.083 14.4167C23.083 12.0268 21.1395 10.0833 18.7497 10.0833Z" fill="white"/>
<path d="M18.2083 31.75H9.54167C9.24267 31.75 9 31.5073 9 31.2083V26.875C9 24.1873 11.1873 22 13.875 22H20.375C20.674 22 20.9167 22.2427 20.9167 22.5417C20.9167 22.8407 20.674 23.0833 20.375 23.0833H13.875C11.7842 23.0833 10.0833 24.7842 10.0833 26.875V30.6667H18.2083C18.5073 30.6667 18.75 30.9093 18.75 31.2083C18.75 31.5073 18.5073 31.75 18.2083 31.75Z" fill="white"/>
<path d="M27.4163 30.6667C25.9235 30.6667 24.708 29.4512 24.708 27.9583C24.708 26.4655 25.9235 25.25 27.4163 25.25C28.9092 25.25 30.1247 26.4655 30.1247 27.9583C30.1247 29.4512 28.9092 30.6667 27.4163 30.6667ZM27.4163 26.3333C26.5204 26.3333 25.7913 27.0624 25.7913 27.9583C25.7913 28.8542 26.5204 29.5833 27.4163 29.5833C28.3123 29.5833 29.0413 28.8542 29.0413 27.9583C29.0413 27.0624 28.3123 26.3333 27.4163 26.3333Z" fill="white"/>
<path d="M28.28 35.0002H26.5521C25.9931 35.0002 25.5294 34.581 25.4741 34.0241L25.3366 32.6472C25.0083 32.501 24.6952 32.319 24.3995 32.1023L23.1341 32.6732C22.6261 32.9051 22.0291 32.7111 21.7507 32.2269L20.8873 30.7308C20.6078 30.2466 20.74 29.6356 21.1928 29.3095L22.3076 28.5078C22.2859 28.3399 22.2707 28.1536 22.2707 27.9586C22.2707 27.7636 22.2859 27.5761 22.3076 27.4093L21.1928 26.6076C20.74 26.2816 20.6078 25.6706 20.8873 25.1863L21.7507 23.6902C22.0302 23.206 22.6239 23.0142 23.1341 23.2439L24.3995 23.8148C24.6952 23.5981 25.0083 23.4161 25.3366 23.2699L25.4741 21.893C25.5294 21.3372 25.9931 20.918 26.5521 20.918H28.28C28.839 20.918 29.3026 21.3372 29.3579 21.8941L29.4955 23.271C29.8248 23.4172 30.1379 23.6003 30.4326 23.8159L31.6979 23.245C32.2081 23.0164 32.8029 23.2081 33.0813 23.6913L33.9447 25.1874C34.2242 25.6716 34.0921 26.2826 33.6392 26.6087L32.5245 27.4104C32.5461 27.5783 32.5613 27.7646 32.5613 27.9596C32.5613 28.1546 32.5461 28.3421 32.5245 28.5089L33.6392 29.3106C34.0921 29.6366 34.2242 30.2476 33.9447 30.7319L33.0824 32.2269C32.8029 32.7101 32.2103 32.904 31.699 32.6732L30.4336 32.1023C30.1379 32.319 29.8248 32.501 29.4966 32.6472L29.3579 34.0252C29.3026 34.581 28.839 35.0002 28.28 35.0002ZM24.4753 30.9323C24.5999 30.9323 24.7234 30.9756 24.8231 31.0591C25.1903 31.3667 25.5966 31.6018 26.0288 31.76C26.2238 31.8315 26.3614 32.0081 26.382 32.215L26.5531 33.9169H28.2811L28.4511 32.215C28.4717 32.0081 28.6093 31.8315 28.8043 31.76C29.2366 31.6018 29.6428 31.3656 30.0101 31.0591C30.1704 30.9258 30.3914 30.8955 30.5799 30.9811L32.1442 31.6874L33.0076 30.1913L31.6231 29.1968C31.4541 29.0755 31.3707 28.8675 31.4054 28.6627C31.4455 28.4341 31.478 28.2012 31.478 27.9607C31.478 27.7202 31.4455 27.4873 31.4054 27.2587C31.3696 27.054 31.4541 26.8471 31.6231 26.7246L33.0076 25.7301L32.1442 24.2341L30.5799 24.9393C30.3903 25.0249 30.1693 24.9946 30.009 24.8613C29.6428 24.5536 29.2376 24.3186 28.8032 24.1604C28.6082 24.0889 28.4706 23.9123 28.4501 23.7054L28.28 22.0002H26.5521L26.382 23.7021C26.3614 23.9091 26.2238 24.0856 26.0288 24.1571C25.5966 24.3153 25.1903 24.5515 24.8231 24.8581C24.6638 24.9913 24.4428 25.0227 24.2532 24.9361L22.6889 24.2297L21.8255 25.7258L23.21 26.7203C23.379 26.8416 23.4624 27.0496 23.4277 27.2544C23.3876 27.483 23.3551 27.7159 23.3551 27.9564C23.3551 28.1969 23.3876 28.4298 23.4277 28.6584C23.4635 28.8631 23.379 29.0701 23.21 29.1925L21.8255 30.187L22.6889 31.6831L24.2532 30.9778C24.3247 30.9475 24.3995 30.9323 24.4753 30.9323Z" fill="white"/>
</g>
<defs>
<clipPath id="clip0_289_7010">
<rect width="26" height="26" fill="white" transform="translate(9 9)"/>
</clipPath>
</defs>
</svg>
