<svg width="122" height="122" viewBox="0 0 122 122" fill="none" xmlns="http://www.w3.org/2000/svg">
<g filter="url(#filter0_d_1071_230)">
<path d="M103 5H19C16.7909 5 15 6.79086 15 9V93C15 95.2091 16.7909 97 19 97H103C105.209 97 107 95.2091 107 93V9C107 6.79086 105.209 5 103 5Z" fill="url(#paint0_linear_1071_230)"/>
</g>
<path d="M22.0918 25.3967H20.6055V8.95312H36.8461V10.4394H22.0918V25.3967Z" fill="black"/>
<path d="M101.397 25.3967H99.9109V10.4394H85.0078V8.95312H101.397V25.3967Z" fill="black"/>
<path d="M36.8461 93.0454H20.6055V76.2305H22.0918V91.5592H36.8461V93.0454Z" fill="black"/>
<path d="M101.397 93.0454H85.0078V91.5592H99.9109V76.2305H101.397V93.0454Z" fill="black"/>
<path d="M30.1306 43.9844H27.3242V46.7908H30.1306V43.9844Z" fill="black"/>
<path d="M30.1306 46.793H27.3242V49.5994H30.1306V46.793Z" fill="black"/>
<path d="M30.1306 49.5977H27.3242V52.4041H30.1306V49.5977Z" fill="black"/>
<path d="M30.1306 52.4062H27.3242V55.2126H30.1306V52.4062Z" fill="black"/>
<path d="M30.1306 55.2109H27.3242V58.0173H30.1306V55.2109Z" fill="black"/>
<path d="M32.9353 43.9844H30.1289V46.7908H32.9353V43.9844Z" fill="black"/>
<path d="M32.9353 55.2109H30.1289V58.0173H32.9353V55.2109Z" fill="black"/>
<path d="M32.9353 58.0156H30.1289V60.822H32.9353V58.0156Z" fill="black"/>
<path d="M35.7439 38.3711H32.9375V41.1775H35.7439V38.3711Z" fill="black"/>
<path d="M35.7439 41.1797H32.9375V43.9861H35.7439V41.1797Z" fill="black"/>
<path d="M35.7439 49.5977H32.9375V52.4041H35.7439V49.5977Z" fill="black"/>
<path d="M35.7439 58.0156H32.9375V60.822H35.7439V58.0156Z" fill="black"/>
<path d="M35.7439 60.8242H32.9375V63.6306H35.7439V60.8242Z" fill="black"/>
<path d="M38.5486 38.3711H35.7422V41.1775H38.5486V38.3711Z" fill="black"/>
<path d="M38.5486 41.1797H35.7422V43.9861H38.5486V41.1797Z" fill="black"/>
<path d="M38.5486 43.9844H35.7422V46.7908H38.5486V43.9844Z" fill="black"/>
<path d="M38.5486 46.793H35.7422V49.5994H38.5486V46.793Z" fill="black"/>
<path d="M38.5486 55.2109H35.7422V58.0173H38.5486V55.2109Z" fill="black"/>
<path d="M41.3571 43.9844H38.5508V46.7908H41.3571V43.9844Z" fill="black"/>
<path d="M41.3571 46.793H38.5508V49.5994H41.3571V46.793Z" fill="black"/>
<path d="M41.3571 49.5977H38.5508V52.4041H41.3571V49.5977Z" fill="black"/>
<path d="M41.3571 55.2109H38.5508V58.0173H41.3571V55.2109Z" fill="black"/>
<path d="M44.1618 38.3711H41.3555V41.1775H44.1618V38.3711Z" fill="black"/>
<path d="M44.1618 41.1797H41.3555V43.9861H44.1618V41.1797Z" fill="black"/>
<path d="M44.1618 46.793H41.3555V49.5994H44.1618V46.793Z" fill="black"/>
<path d="M44.1618 49.5977H41.3555V52.4041H44.1618V49.5977Z" fill="black"/>
<path d="M44.1618 60.8242H41.3555V63.6306H44.1618V60.8242Z" fill="black"/>
<path d="M46.9666 38.3711H44.1602V41.1775H46.9666V38.3711Z" fill="black"/>
<path d="M46.9666 43.9844H44.1602V46.7908H46.9666V43.9844Z" fill="black"/>
<path d="M46.9666 52.4062H44.1602V55.2126H46.9666V52.4062Z" fill="black"/>
<path d="M46.9666 55.2109H44.1602V58.0173H46.9666V55.2109Z" fill="black"/>
<path d="M46.9666 58.0156H44.1602V60.822H46.9666V58.0156Z" fill="black"/>
<path d="M49.7751 41.1797H46.9688V43.9861H49.7751V41.1797Z" fill="black"/>
<path d="M49.7751 49.5977H46.9688V52.4041H49.7751V49.5977Z" fill="black"/>
<path d="M49.7751 55.2109H46.9688V58.0173H49.7751V55.2109Z" fill="black"/>
<path d="M49.7751 58.0156H46.9688V60.822H49.7751V58.0156Z" fill="black"/>
<path d="M52.5798 15.9219H49.7734V18.7283H52.5798V15.9219Z" fill="black"/>
<path d="M52.5798 18.7266H49.7734V21.533H52.5798V18.7266Z" fill="black"/>
<path d="M52.5798 24.3398H49.7734V27.1462H52.5798V24.3398Z" fill="black"/>
<path d="M52.5798 35.5664H49.7734V38.3727H52.5798V35.5664Z" fill="black"/>
<path d="M52.5798 38.3711H49.7734V41.1775H52.5798V38.3711Z" fill="black"/>
<path d="M52.5798 43.9844H49.7734V46.7908H52.5798V43.9844Z" fill="black"/>
<path d="M52.5798 46.793H49.7734V49.5994H52.5798V46.793Z" fill="black"/>
<path d="M52.5798 49.5977H49.7734V52.4041H52.5798V49.5977Z" fill="black"/>
<path d="M52.5798 60.8242H49.7734V63.6306H52.5798V60.8242Z" fill="black"/>
<path d="M52.5798 69.2422H49.7734V72.0486H52.5798V69.2422Z" fill="black"/>
<path d="M52.5798 74.8555H49.7734V77.6619H52.5798V74.8555Z" fill="black"/>
<path d="M52.5798 77.6602H49.7734V80.4665H52.5798V77.6602Z" fill="black"/>
<path d="M52.5798 80.4688H49.7734V83.2751H52.5798V80.4688Z" fill="black"/>
<path d="M52.5798 83.2734H49.7734V86.08H52.5798V83.2734Z" fill="black"/>
<path d="M55.3884 18.7266H52.582V21.533H55.3884V18.7266Z" fill="black"/>
<path d="M55.3884 21.5352H52.582V24.3415H55.3884V21.5352Z" fill="black"/>
<path d="M55.3884 24.3398H52.582V27.1462H55.3884V24.3398Z" fill="black"/>
<path d="M55.3884 27.1484H52.582V29.9548H55.3884V27.1484Z" fill="black"/>
<path d="M55.3884 32.7578H52.582V35.5643H55.3884V32.7578Z" fill="black"/>
<path d="M55.3884 41.1797H52.582V43.9861H55.3884V41.1797Z" fill="black"/>
<path d="M55.3884 43.9844H52.582V46.7908H55.3884V43.9844Z" fill="black"/>
<path d="M55.3884 49.5977H52.582V52.4041H55.3884V49.5977Z" fill="black"/>
<path d="M55.3884 52.4062H52.582V55.2126H55.3884V52.4062Z" fill="black"/>
<path d="M55.3884 55.2109H52.582V58.0173H55.3884V55.2109Z" fill="black"/>
<path d="M55.3884 58.0156H52.582V60.822H55.3884V58.0156Z" fill="black"/>
<path d="M55.3884 60.8242H52.582V63.6306H55.3884V60.8242Z" fill="black"/>
<path d="M55.3884 74.8555H52.582V77.6619H55.3884V74.8555Z" fill="black"/>
<path d="M55.3884 77.6602H52.582V80.4665H55.3884V77.6602Z" fill="black"/>
<path d="M55.3884 80.4688H52.582V83.2751H55.3884V80.4688Z" fill="black"/>
<path d="M58.1931 15.9219H55.3867V18.7283H58.1931V15.9219Z" fill="black"/>
<path d="M58.1931 18.7266H55.3867V21.533H58.1931V18.7266Z" fill="black"/>
<path d="M58.1931 27.1484H55.3867V29.9548H58.1931V27.1484Z" fill="black"/>
<path d="M58.1931 29.9531H55.3867V32.7594H58.1931V29.9531Z" fill="black"/>
<path d="M58.1931 46.793H55.3867V49.5994H58.1931V46.793Z" fill="black"/>
<path d="M58.1931 52.4062H55.3867V55.2126H58.1931V52.4062Z" fill="black"/>
<path d="M58.1931 55.2109H55.3867V58.0173H58.1931V55.2109Z" fill="black"/>
<path d="M58.1931 58.0156H55.3867V60.822H58.1931V58.0156Z" fill="black"/>
<path d="M58.1931 60.8242H55.3867V63.6306H58.1931V60.8242Z" fill="black"/>
<path d="M58.1931 69.2422H55.3867V72.0486H58.1931V69.2422Z" fill="black"/>
<path d="M58.1931 77.6602H55.3867V80.4665H58.1931V77.6602Z" fill="black"/>
<path d="M61.0017 18.7266H58.1953V21.533H61.0017V18.7266Z" fill="black"/>
<path d="M61.0017 32.7578H58.1953V35.5643H61.0017V32.7578Z" fill="black"/>
<path d="M61.0017 35.5664H58.1953V38.3727H61.0017V35.5664Z" fill="black"/>
<path d="M61.0017 38.3711H58.1953V41.1775H61.0017V38.3711Z" fill="black"/>
<path d="M61.0017 41.1797H58.1953V43.9861H61.0017V41.1797Z" fill="black"/>
<path d="M61.0017 49.5977H58.1953V52.4041H61.0017V49.5977Z" fill="black"/>
<path d="M61.0017 52.4062H58.1953V55.2126H61.0017V52.4062Z" fill="black"/>
<path d="M61.0017 55.2109H58.1953V58.0173H61.0017V55.2109Z" fill="black"/>
<path d="M61.0017 58.0156H58.1953V60.822H61.0017V58.0156Z" fill="black"/>
<path d="M61.0017 60.8242H58.1953V63.6306H61.0017V60.8242Z" fill="black"/>
<path d="M61.0017 63.6289H58.1953V66.4353H61.0017V63.6289Z" fill="black"/>
<path d="M61.0017 66.4375H58.1953V69.2439H61.0017V66.4375Z" fill="black"/>
<path d="M61.0017 74.8555H58.1953V77.6619H61.0017V74.8555Z" fill="black"/>
<path d="M61.0017 77.6602H58.1953V80.4665H61.0017V77.6602Z" fill="black"/>
<path d="M61.0017 80.4688H58.1953V83.2751H61.0017V80.4688Z" fill="black"/>
<path d="M61.0017 83.2734H58.1953V86.08H61.0017V83.2734Z" fill="black"/>
<path d="M63.8063 15.9219H61V18.7283H63.8063V15.9219Z" fill="black"/>
<path d="M63.8063 18.7266H61V21.533H63.8063V18.7266Z" fill="black"/>
<path d="M63.8063 21.5352H61V24.3415H63.8063V21.5352Z" fill="black"/>
<path d="M63.8063 32.7578H61V35.5643H63.8063V32.7578Z" fill="black"/>
<path d="M63.8063 35.5664H61V38.3727H63.8063V35.5664Z" fill="black"/>
<path d="M63.8063 41.1797H61V43.9861H63.8063V41.1797Z" fill="black"/>
<path d="M63.8063 52.4062H61V55.2126H63.8063V52.4062Z" fill="black"/>
<path d="M63.8063 55.2109H61V58.0173H63.8063V55.2109Z" fill="black"/>
<path d="M63.8063 66.4375H61V69.2439H63.8063V66.4375Z" fill="black"/>
<path d="M63.8063 69.2422H61V72.0486H63.8063V69.2422Z" fill="black"/>
<path d="M63.8063 74.8555H61V77.6619H63.8063V74.8555Z" fill="black"/>
<path d="M63.8063 83.2734H61V86.08H63.8063V83.2734Z" fill="black"/>
<path d="M66.6149 15.9219H63.8086V18.7283H66.6149V15.9219Z" fill="black"/>
<path d="M66.6149 27.1484H63.8086V29.9548H66.6149V27.1484Z" fill="black"/>
<path d="M66.6149 29.9531H63.8086V32.7594H66.6149V29.9531Z" fill="black"/>
<path d="M66.6149 32.7578H63.8086V35.5643H66.6149V32.7578Z" fill="black"/>
<path d="M66.6149 35.5664H63.8086V38.3727H66.6149V35.5664Z" fill="black"/>
<path d="M66.6149 38.3711H63.8086V41.1775H66.6149V38.3711Z" fill="black"/>
<path d="M66.6149 41.1797H63.8086V43.9861H66.6149V41.1797Z" fill="black"/>
<path d="M66.6149 46.793H63.8086V49.5994H66.6149V46.793Z" fill="black"/>
<path d="M66.6149 49.5977H63.8086V52.4041H66.6149V49.5977Z" fill="black"/>
<path d="M66.6149 63.6289H63.8086V66.4353H66.6149V63.6289Z" fill="black"/>
<path d="M66.6149 69.2422H63.8086V72.0486H66.6149V69.2422Z" fill="black"/>
<path d="M66.6149 80.4688H63.8086V83.2751H66.6149V80.4688Z" fill="black"/>
<path d="M69.4198 24.3398H66.6133V27.1462H69.4198V24.3398Z" fill="black"/>
<path d="M69.4198 27.1484H66.6133V29.9548H69.4198V27.1484Z" fill="black"/>
<path d="M69.4198 32.7578H66.6133V35.5643H69.4198V32.7578Z" fill="black"/>
<path d="M69.4198 38.3711H66.6133V41.1775H69.4198V38.3711Z" fill="black"/>
<path d="M69.4198 41.1797H66.6133V43.9861H69.4198V41.1797Z" fill="black"/>
<path d="M69.4198 43.9844H66.6133V46.7908H69.4198V43.9844Z" fill="black"/>
<path d="M69.4198 46.793H66.6133V49.5994H69.4198V46.793Z" fill="black"/>
<path d="M69.4198 52.4062H66.6133V55.2126H69.4198V52.4062Z" fill="black"/>
<path d="M69.4198 55.2109H66.6133V58.0173H69.4198V55.2109Z" fill="black"/>
<path d="M69.4198 63.6289H66.6133V66.4353H69.4198V63.6289Z" fill="black"/>
<path d="M69.4198 74.8555H66.6133V77.6619H69.4198V74.8555Z" fill="black"/>
<path d="M69.4198 80.4688H66.6133V83.2751H69.4198V80.4688Z" fill="black"/>
<path d="M69.4198 83.2734H66.6133V86.08H69.4198V83.2734Z" fill="black"/>
<path d="M72.2243 15.9219H69.418V18.7283H72.2243V15.9219Z" fill="black"/>
<path d="M72.2243 27.1484H69.418V29.9548H72.2243V27.1484Z" fill="black"/>
<path d="M72.2243 32.7578H69.418V35.5643H72.2243V32.7578Z" fill="black"/>
<path d="M72.2243 35.5664H69.418V38.3727H72.2243V35.5664Z" fill="black"/>
<path d="M72.2243 38.3711H69.418V41.1775H72.2243V38.3711Z" fill="black"/>
<path d="M72.2243 41.1797H69.418V43.9861H72.2243V41.1797Z" fill="black"/>
<path d="M72.2243 46.793H69.418V49.5994H72.2243V46.793Z" fill="black"/>
<path d="M72.2243 72.0508H69.418V74.8572H72.2243V72.0508Z" fill="black"/>
<path d="M72.2243 74.8555H69.418V77.6619H72.2243V74.8555Z" fill="black"/>
<path d="M75.033 43.9844H72.2266V46.7908H75.033V43.9844Z" fill="black"/>
<path d="M75.033 55.2109H72.2266V58.0173H75.033V55.2109Z" fill="black"/>
<path d="M75.033 58.0156H72.2266V60.822H75.033V58.0156Z" fill="black"/>
<path d="M75.033 63.6289H72.2266V66.4353H75.033V63.6289Z" fill="black"/>
<path d="M75.033 72.0508H72.2266V74.8572H75.033V72.0508Z" fill="black"/>
<path d="M75.033 74.8555H72.2266V77.6619H75.033V74.8555Z" fill="black"/>
<path d="M75.033 77.6602H72.2266V80.4665H75.033V77.6602Z" fill="black"/>
<path d="M77.8376 43.9844H75.0312V46.7908H77.8376V43.9844Z" fill="black"/>
<path d="M77.8376 49.5977H75.0312V52.4041H77.8376V49.5977Z" fill="black"/>
<path d="M77.8376 55.2109H75.0312V58.0173H77.8376V55.2109Z" fill="black"/>
<path d="M77.8376 58.0156H75.0312V60.822H77.8376V58.0156Z" fill="black"/>
<path d="M77.8376 69.2422H75.0312V72.0486H77.8376V69.2422Z" fill="black"/>
<path d="M77.8376 72.0508H75.0312V74.8572H77.8376V72.0508Z" fill="black"/>
<path d="M77.8376 77.6602H75.0312V80.4665H77.8376V77.6602Z" fill="black"/>
<path d="M80.6464 38.3711H77.8398V41.1775H80.6464V38.3711Z" fill="black"/>
<path d="M80.6464 41.1797H77.8398V43.9861H80.6464V41.1797Z" fill="black"/>
<path d="M80.6464 43.9844H77.8398V46.7908H80.6464V43.9844Z" fill="black"/>
<path d="M80.6464 46.793H77.8398V49.5994H80.6464V46.793Z" fill="black"/>
<path d="M80.6464 55.2109H77.8398V58.0173H80.6464V55.2109Z" fill="black"/>
<path d="M80.6464 63.6289H77.8398V66.4353H80.6464V63.6289Z" fill="black"/>
<path d="M80.6464 83.2734H77.8398V86.08H80.6464V83.2734Z" fill="black"/>
<path d="M83.4509 43.9844H80.6445V46.7908H83.4509V43.9844Z" fill="black"/>
<path d="M83.4509 46.793H80.6445V49.5994H83.4509V46.793Z" fill="black"/>
<path d="M83.4509 55.2109H80.6445V58.0173H83.4509V55.2109Z" fill="black"/>
<path d="M83.4509 58.0156H80.6445V60.822H83.4509V58.0156Z" fill="black"/>
<path d="M83.4509 60.8242H80.6445V63.6306H83.4509V60.8242Z" fill="black"/>
<path d="M83.4509 66.4375H80.6445V69.2439H83.4509V66.4375Z" fill="black"/>
<path d="M83.4509 69.2422H80.6445V72.0486H83.4509V69.2422Z" fill="black"/>
<path d="M83.4509 72.0508H80.6445V74.8572H83.4509V72.0508Z" fill="black"/>
<path d="M83.4509 74.8555H80.6445V77.6619H83.4509V74.8555Z" fill="black"/>
<path d="M83.4509 77.6602H80.6445V80.4665H83.4509V77.6602Z" fill="black"/>
<path d="M83.4509 83.2734H80.6445V86.08H83.4509V83.2734Z" fill="black"/>
<path d="M86.2594 43.9844H83.4531V46.7908H86.2594V43.9844Z" fill="black"/>
<path d="M86.2594 52.4062H83.4531V55.2126H86.2594V52.4062Z" fill="black"/>
<path d="M86.2594 55.2109H83.4531V58.0173H86.2594V55.2109Z" fill="black"/>
<path d="M86.2594 60.8242H83.4531V63.6306H86.2594V60.8242Z" fill="black"/>
<path d="M86.2594 63.6289H83.4531V66.4353H86.2594V63.6289Z" fill="black"/>
<path d="M86.2594 69.2422H83.4531V72.0486H86.2594V69.2422Z" fill="black"/>
<path d="M86.2594 83.2734H83.4531V86.08H86.2594V83.2734Z" fill="black"/>
<path d="M89.0642 43.9844H86.2578V46.7908H89.0642V43.9844Z" fill="black"/>
<path d="M89.0642 49.5977H86.2578V52.4041H89.0642V49.5977Z" fill="black"/>
<path d="M89.0642 55.2109H86.2578V58.0173H89.0642V55.2109Z" fill="black"/>
<path d="M89.0642 58.0156H86.2578V60.822H89.0642V58.0156Z" fill="black"/>
<path d="M89.0642 60.8242H86.2578V63.6306H89.0642V60.8242Z" fill="black"/>
<path d="M89.0642 69.2422H86.2578V72.0486H89.0642V69.2422Z" fill="black"/>
<path d="M89.0642 74.8555H86.2578V77.6619H89.0642V74.8555Z" fill="black"/>
<path d="M89.0642 80.4688H86.2578V83.2751H89.0642V80.4688Z" fill="black"/>
<path d="M89.0642 83.2734H86.2578V86.08H89.0642V83.2734Z" fill="black"/>
<path d="M91.8689 41.1797H89.0625V43.9861H91.8689V41.1797Z" fill="black"/>
<path d="M91.8689 43.9844H89.0625V46.7908H91.8689V43.9844Z" fill="black"/>
<path d="M91.8689 46.793H89.0625V49.5994H91.8689V46.793Z" fill="black"/>
<path d="M91.8689 55.2109H89.0625V58.0173H91.8689V55.2109Z" fill="black"/>
<path d="M91.8689 58.0156H89.0625V60.822H91.8689V58.0156Z" fill="black"/>
<path d="M91.8689 63.6289H89.0625V66.4353H91.8689V63.6289Z" fill="black"/>
<path d="M91.8689 66.4375H89.0625V69.2439H91.8689V66.4375Z" fill="black"/>
<path d="M91.8689 72.0508H89.0625V74.8572H91.8689V72.0508Z" fill="black"/>
<path d="M91.8689 77.6602H89.0625V80.4665H91.8689V77.6602Z" fill="black"/>
<path d="M91.8689 83.2734H89.0625V86.08H91.8689V83.2734Z" fill="black"/>
<path d="M94.6775 46.793H91.8711V49.5994H94.6775V46.793Z" fill="black"/>
<path d="M94.6775 49.5977H91.8711V52.4041H94.6775V49.5977Z" fill="black"/>
<path d="M94.6775 55.2109H91.8711V58.0173H94.6775V55.2109Z" fill="black"/>
<path d="M94.6775 58.0156H91.8711V60.822H94.6775V58.0156Z" fill="black"/>
<path d="M94.6775 60.8242H91.8711V63.6306H94.6775V60.8242Z" fill="black"/>
<path d="M94.6775 66.4375H91.8711V69.2439H94.6775V66.4375Z" fill="black"/>
<path d="M94.6775 74.8555H91.8711V77.6619H94.6775V74.8555Z" fill="black"/>
<path d="M94.6775 80.4688H91.8711V83.2751H94.6775V80.4688Z" fill="black"/>
<path d="M27.3242 15.9219V35.5666H46.9685V15.9219H27.3242ZM45.5653 34.1629H28.7274V17.3251H45.5658V34.1629H45.5653Z" fill="black"/>
<path d="M28.7266 17.3242V34.1626H45.5649V17.3242H28.7266ZM44.3617 32.9594H29.9292V18.5269H44.3617V32.9594Z" fill="black"/>
<path d="M41.3567 21.5352H32.9375V29.9543H41.3567V21.5352Z" fill="black"/>
<path d="M27.3242 66.4375V86.0822H46.9685V66.4375H27.3242ZM45.5653 84.6785H28.7274V67.8402H45.5658V84.6785H45.5653Z" fill="black"/>
<path d="M28.7266 67.8398V84.6783H45.5649V67.8398H28.7266ZM44.3617 83.4752H29.9292V69.0425H44.3617V83.4752Z" fill="black"/>
<path d="M41.3567 72.0508H32.9375V80.4699H41.3567V72.0508Z" fill="black"/>
<path d="M75.0312 15.9219V35.5666H94.676V15.9219H75.0312ZM93.2723 34.1629H76.434V17.3251H93.2723V34.1629Z" fill="black"/>
<path d="M76.4336 17.3242V34.1626H93.2719V17.3242H76.4336ZM92.0688 32.9594H77.6363V18.5269H92.0688V32.9594Z" fill="black"/>
<path d="M89.0637 21.5352H80.6445V29.9543H89.0637V21.5352Z" fill="black"/>
<defs>
<filter id="filter0_d_1071_230" x="0" y="0" width="122" height="122" filterUnits="userSpaceOnUse" color-interpolation-filters="sRGB">
<feFlood flood-opacity="0" result="BackgroundImageFix"/>
<feColorMatrix in="SourceAlpha" type="matrix" values="0 0 0 0 0 0 0 0 0 0 0 0 0 0 0 0 0 0 127 0" result="hardAlpha"/>
<feOffset dy="10"/>
<feGaussianBlur stdDeviation="7.5"/>
<feComposite in2="hardAlpha" operator="out"/>
<feColorMatrix type="matrix" values="0 0 0 0 0 0 0 0 0 0 0 0 0 0 0 0 0 0 0.07 0"/>
<feBlend mode="normal" in2="BackgroundImageFix" result="effect1_dropShadow_1071_230"/>
<feBlend mode="normal" in="SourceGraphic" in2="effect1_dropShadow_1071_230" result="shape"/>
</filter>
<linearGradient id="paint0_linear_1071_230" x1="107" y1="97" x2="15" y2="5" gradientUnits="userSpaceOnUse">
<stop offset="0.00487805" stop-color="#FAFAFA"/>
<stop offset="1" stop-color="white"/>
</linearGradient>
</defs>
</svg>
