<svg width="44" height="44" viewBox="0 0 44 44" fill="none" xmlns="http://www.w3.org/2000/svg">
<rect width="44" height="44" rx="4" fill="#86C255"/>
<path d="M12.8594 21.1875C13.4739 21.1875 14.0301 20.9409 14.4411 20.545L16.6959 21.6723C16.6846 21.7641 16.668 21.8544 16.668 21.9492C16.668 23.2092 17.6931 24.2344 18.9531 24.2344C20.2131 24.2344 21.2383 23.2092 21.2383 21.9492C21.2383 21.5975 21.1518 21.2682 21.0092 20.9703L24.0679 17.9115C24.3659 18.0541 24.6952 18.1406 25.0469 18.1406C26.3069 18.1406 27.332 17.1155 27.332 15.8555C27.332 15.6182 27.2854 15.3939 27.218 15.1786L29.8757 13.1859C30.2383 13.4281 30.6729 13.5703 31.1406 13.5703C32.4006 13.5703 33.4258 12.5452 33.4258 11.2852C33.4258 10.0251 32.4006 9 31.1406 9C29.8806 9 28.8555 10.0251 28.8555 11.2852C28.8555 11.5224 28.9021 11.7467 28.9695 11.962L26.3118 13.9547C25.9492 13.7125 25.5146 13.5703 25.0469 13.5703C23.7869 13.5703 22.7617 14.5955 22.7617 15.8555C22.7617 16.2072 22.8482 16.5365 22.9908 16.8344L19.9321 19.8932C19.6341 19.7505 19.3048 19.6641 18.9531 19.6641C18.3386 19.6641 17.7824 19.9106 17.3714 20.3066L15.1166 19.1793C15.1279 19.0874 15.1445 18.9972 15.1445 18.9023C15.1445 17.6423 14.1194 16.6172 12.8594 16.6172C11.5994 16.6172 10.5742 17.6423 10.5742 18.9023C10.5742 20.1624 11.5994 21.1875 12.8594 21.1875Z" fill="white"/>
<path d="M34.2383 33.4766H33.4258V17.3789C33.4258 16.958 33.085 16.6172 32.6641 16.6172H29.6172C29.1963 16.6172 28.8555 16.958 28.8555 17.3789V33.4766H27.332V21.9492C27.332 21.5283 26.9912 21.1875 26.5703 21.1875H23.5234C23.1025 21.1875 22.7617 21.5283 22.7617 21.9492V33.4766H21.2383V28.043C21.2383 27.622 20.8975 27.2812 20.4766 27.2812H17.4297C17.0088 27.2812 16.668 27.622 16.668 28.043V33.4766H15.1445V24.9961C15.1445 24.5752 14.8037 24.2344 14.3828 24.2344H11.3359C10.915 24.2344 10.5742 24.5752 10.5742 24.9961V33.4766H9.76172C9.34079 33.4766 9 33.8174 9 34.2383C9 34.6592 9.34079 35 9.76172 35H34.2383C34.6592 35 35 34.6592 35 34.2383C35 33.8174 34.6592 33.4766 34.2383 33.4766Z" fill="white"/>
</svg>
