<svg width="44" height="44" viewBox="0 0 44 44" fill="none" xmlns="http://www.w3.org/2000/svg">
<rect width="44" height="44" rx="4" fill="#86C255"/>
<g clip-path="url(#clip0_289_2360)">
<path d="M35.8667 10.2667H35.0208L30.9104 6.15625C30.8651 6.11172 30.8122 6.07552 30.7542 6.04948C30.7375 6.04219 30.7216 6.03776 30.7044 6.03203C30.6599 6.01667 30.6135 6.00729 30.5664 6.00417C30.5547 6.00599 30.5445 6 30.5333 6H10.8C9.62188 6 8.66667 6.95521 8.66667 8.13333V10.2667H8.13333C6.95521 10.2667 6 11.2219 6 12.4V30.5333C6 31.7115 6.95521 32.6667 8.13333 32.6667H18.6164L17.3365 36.9333H16.1333V38H23.6V36.9333H18.4503L19.7302 32.6667H22.5333V31.6H8.13333C7.54427 31.6 7.06667 31.1224 7.06667 30.5333V29.4667H25.2V28.4H7.06667V12.4C7.06667 11.8109 7.54427 11.3333 8.13333 11.3333H8.66667V27.3333H9.73333V8.13333C9.73333 7.54427 10.2109 7.06667 10.8 7.06667H30V9.73333C30 10.6169 30.7164 11.3333 31.6 11.3333H34.2667V27.3333H35.3333V11.3333H35.8667C36.4557 11.3333 36.9333 11.8109 36.9333 12.4V28.4H30.5333V29.4667H36.9333V30.5333C36.9336 30.837 36.8044 31.1266 36.5781 31.3292L37.2885 32.1247C37.7414 31.7198 38.0003 31.1409 38 30.5333V12.4C38 11.2219 37.0448 10.2667 35.8667 10.2667ZM31.6 10.2667C31.3055 10.2667 31.0667 10.0279 31.0667 9.73333V7.82083L33.512 10.2667H31.6Z" fill="white"/>
<path d="M10.9794 17.6004L15.7794 21.8671C15.8771 21.9538 16.0031 22.002 16.1336 22.002C16.2089 22.0022 16.2833 21.9863 16.3518 21.9551C16.5435 21.8692 16.6669 21.6788 16.6669 21.4686V19.3353H26.2669V18.2686H16.1336C15.8391 18.2686 15.6003 18.5074 15.6003 18.802V20.2809L12.1362 17.202L15.6003 14.1231V15.602C15.6003 15.8965 15.8391 16.1353 16.1336 16.1353H33.2003V15.0686H16.6669V12.9353C16.6667 12.7254 16.5435 12.535 16.3521 12.4491C16.1604 12.3632 15.9365 12.3975 15.7794 12.5369L10.9794 16.8035C10.8656 16.9048 10.8008 17.0496 10.8008 17.202C10.8008 17.3543 10.8656 17.4991 10.9794 17.6004Z" fill="white"/>
<path d="M29.8098 25.7878L33.0199 22.9344C33.1337 22.8331 33.1986 22.6883 33.1986 22.536C33.1986 22.3839 33.1337 22.2388 33.0199 22.1375L28.2199 17.8709C28.0632 17.7318 27.8395 17.6972 27.648 17.7828C27.4566 17.8685 27.3332 18.0581 27.3324 18.2677V20.4011H17.7324V21.4677H27.8658C28.1603 21.4677 28.3991 21.2289 28.3991 20.9344V19.4544L31.8658 22.5344L29.1035 24.9878L29.8098 25.7878Z" fill="white"/>
<path d="M10.7988 24.6682H28.3988V24.1349C28.3988 23.8404 28.16 23.6016 27.8655 23.6016H10.7988V24.6682Z" fill="white"/>
<path d="M34.533 30.0236C34.0677 29.9466 33.5919 30.0778 33.2323 30.383C33.2216 30.3916 33.2114 30.4007 33.2007 30.4104C32.594 29.8656 31.6742 29.8656 31.0674 30.4104C30.6263 30.0322 30.0195 29.9119 29.4674 30.0929V27.3926C29.4776 26.5966 28.9158 25.9078 28.1341 25.757C27.6695 25.6781 27.1934 25.808 26.8336 26.1124C26.4734 26.4166 26.2661 26.8643 26.2664 27.3356V33.8604L24.851 33.0114C24.4187 32.7502 23.8828 32.7301 23.4322 32.958L23.3479 32.9997C22.8854 33.2312 22.5781 33.6882 22.5377 34.2038C22.4974 34.7195 22.7299 35.2187 23.1507 35.5197L26.4898 37.9041C26.5804 37.9684 26.6888 38.0025 26.7997 38.0023H35.333C35.6276 38.0023 35.8664 37.7635 35.8664 37.469V31.6593C35.8763 30.8632 35.3148 30.1744 34.533 30.0236ZM34.7997 36.9356H26.9703L23.7703 34.6502C23.6536 34.5674 23.5888 34.4291 23.5997 34.2861C23.6106 34.1432 23.6955 34.0163 23.8237 33.952L23.9075 33.9106C24.032 33.8473 24.1802 33.8531 24.2994 33.9255L26.5229 35.2588C26.6877 35.3588 26.8937 35.3622 27.0614 35.2676C27.2294 35.1729 27.3333 34.995 27.333 34.8023V27.3356C27.333 27.1788 27.4018 27.0301 27.5213 26.9286C27.6421 26.8252 27.8031 26.7817 27.9596 26.8104C28.226 26.8755 28.4099 27.1187 28.3997 27.3926V31.6023C28.3997 31.8968 28.6385 32.1356 28.933 32.1356C29.2276 32.1356 29.4664 31.8968 29.4664 31.6023C29.4664 31.3078 29.7052 31.069 29.9997 31.069C30.2942 31.069 30.533 31.3078 30.533 31.6023C30.533 31.8968 30.7718 32.1356 31.0664 32.1356C31.3609 32.1356 31.5997 31.8968 31.5997 31.6023C31.5997 31.3078 31.8385 31.069 32.133 31.069C32.4276 31.069 32.6664 31.3078 32.6664 31.6023C32.6664 31.8968 32.9052 32.1356 33.1997 32.1356C33.4942 32.1356 33.733 31.8968 33.733 31.6023C33.733 31.4445 33.8028 31.2947 33.9237 31.1934C34.0448 31.0919 34.2044 31.0494 34.3596 31.077C34.626 31.1421 34.8099 31.3854 34.7997 31.6593V36.9356Z" fill="white"/>
<path d="M10.7988 8.13086H11.8655V9.19753H10.7988V8.13086Z" fill="white"/>
<path d="M12.9336 8.13086H14.0003V9.19753H12.9336V8.13086Z" fill="white"/>
<path d="M15.0664 8.13086H16.1331V9.19753H15.0664V8.13086Z" fill="white"/>
<path d="M10.7988 10.2676H28.9322V11.3342H10.7988V10.2676Z" fill="white"/>
<path d="M10.7988 20.3984H12.9322V21.4651H10.7988V20.3984Z" fill="white"/>
<path d="M30.5332 18.2676H33.1999V19.3342H30.5332V18.2676Z" fill="white"/>
</g>
<defs>
<clipPath id="clip0_289_2360">
<rect width="32" height="32" fill="white" transform="translate(6 6)"/>
</clipPath>
</defs>
</svg>
