<svg width="32" height="32" viewBox="0 0 32 32" fill="none" xmlns="http://www.w3.org/2000/svg">
<g clip-path="url(#clip0_289_1222)">
<path d="M29.8667 4.26667H29.0208L24.9104 0.15625C24.8651 0.111719 24.8122 0.0755208 24.7542 0.0494792C24.7375 0.0421875 24.7216 0.0377604 24.7044 0.0320313C24.6599 0.0166667 24.6135 0.00729167 24.5664 0.00416667C24.5547 0.00598959 24.5445 0 24.5333 0H4.8C3.62188 0 2.66667 0.955208 2.66667 2.13333V4.26667H2.13333C0.955208 4.26667 0 5.22188 0 6.4V24.5333C0 25.7115 0.955208 26.6667 2.13333 26.6667H12.6164L11.3365 30.9333H10.1333V32H17.6V30.9333H12.4503L13.7302 26.6667H16.5333V25.6H2.13333C1.54427 25.6 1.06667 25.1224 1.06667 24.5333V23.4667H19.2V22.4H1.06667V6.4C1.06667 5.81094 1.54427 5.33333 2.13333 5.33333H2.66667V21.3333H3.73333V2.13333C3.73333 1.54427 4.21094 1.06667 4.8 1.06667H24V3.73333C24 4.61693 24.7164 5.33333 25.6 5.33333H28.2667V21.3333H29.3333V5.33333H29.8667C30.4557 5.33333 30.9333 5.81094 30.9333 6.4V22.4H24.5333V23.4667H30.9333V24.5333C30.9336 24.837 30.8044 25.1266 30.5781 25.3292L31.2885 26.1247C31.7414 25.7198 32.0003 25.1409 32 24.5333V6.4C32 5.22188 31.0448 4.26667 29.8667 4.26667ZM25.6 4.26667C25.3055 4.26667 25.0667 4.02786 25.0667 3.73333V1.82083L27.512 4.26667H25.6Z" fill="#4D556A"/>
<path d="M4.97943 11.6003L9.77943 15.867C9.87708 15.9537 10.0031 16.0018 10.1336 16.0018C10.2089 16.0021 10.2833 15.9862 10.3518 15.955C10.5435 15.869 10.6669 15.6787 10.6669 15.4685V13.3352H20.2669V12.2685H10.1336C9.83906 12.2685 9.60026 12.5073 9.60026 12.8018V14.2808L6.1362 11.2018L9.60026 8.12294V9.60185C9.60026 9.89638 9.83906 10.1352 10.1336 10.1352H27.2003V9.06851H10.6669V6.93518C10.6667 6.72529 10.5435 6.53492 10.3521 6.44898C10.1604 6.36305 9.93646 6.39742 9.77943 6.53674L4.97943 10.8034C4.86563 10.9047 4.80078 11.0495 4.80078 11.2018C4.80078 11.3542 4.86563 11.499 4.97943 11.6003Z" fill="#4D556A"/>
<path d="M23.8107 19.788L27.0209 16.9346C27.1347 16.8333 27.1995 16.6885 27.1995 16.5362C27.1995 16.3841 27.1347 16.2391 27.0209 16.1378L22.2209 11.8711C22.0641 11.732 21.8404 11.6974 21.649 11.7831C21.4576 11.8688 21.3342 12.0583 21.3334 12.268V14.4013H11.7334V15.468H21.8667C22.1613 15.468 22.4001 15.2292 22.4001 14.9346V13.4547L25.8667 16.5346L23.1045 18.988L23.8107 19.788Z" fill="#4D556A"/>
<path d="M4.7998 18.6681H22.3998V18.1348C22.3998 17.8402 22.161 17.6014 21.8665 17.6014H4.7998V18.6681Z" fill="#4D556A"/>
<path d="M28.533 24.0233C28.0677 23.9462 27.5919 24.0774 27.2323 24.3826C27.2216 24.3912 27.2114 24.4004 27.2007 24.41C26.594 23.8652 25.6742 23.8652 25.0674 24.41C24.6263 24.0319 24.0195 23.9116 23.4674 24.0925V21.3923C23.4776 20.5962 22.9158 19.9074 22.1341 19.7566C21.6695 19.6777 21.1934 19.8076 20.8336 20.1121C20.4734 20.4162 20.2661 20.8639 20.2664 21.3353V27.86L18.851 27.011C18.4187 26.7498 17.8828 26.7298 17.4322 26.9576L17.3479 26.9993C16.8854 27.2308 16.5781 27.6879 16.5377 28.2035C16.4974 28.7191 16.7299 29.2183 17.1507 29.5194L20.4898 31.9037C20.5804 31.9681 20.6888 32.0022 20.7997 32.0019H29.333C29.6276 32.0019 29.8664 31.7631 29.8664 31.4686V25.6589C29.8763 24.8629 29.3148 24.1741 28.533 24.0233ZM28.7997 30.9353H20.9703L17.7703 28.6498C17.6536 28.567 17.5888 28.4287 17.5997 28.2858C17.6106 28.1428 17.6955 28.016 17.8237 27.9517L17.9075 27.9103C18.032 27.847 18.1802 27.8527 18.2994 27.9251L20.5229 29.2584C20.6877 29.3584 20.8937 29.3618 21.0614 29.2673C21.2294 29.1725 21.3333 28.9946 21.333 28.8019V21.3353C21.333 21.1785 21.4018 21.0298 21.5213 20.9282C21.6421 20.8248 21.8031 20.7813 21.9596 20.81C22.226 20.8751 22.4099 21.1183 22.3997 21.3923V25.6019C22.3997 25.8964 22.6385 26.1353 22.933 26.1353C23.2276 26.1353 23.4664 25.8964 23.4664 25.6019C23.4664 25.3074 23.7052 25.0686 23.9997 25.0686C24.2942 25.0686 24.533 25.3074 24.533 25.6019C24.533 25.8964 24.7718 26.1353 25.0664 26.1353C25.3609 26.1353 25.5997 25.8964 25.5997 25.6019C25.5997 25.3074 25.8385 25.0686 26.133 25.0686C26.4276 25.0686 26.6664 25.3074 26.6664 25.6019C26.6664 25.8964 26.9052 26.1353 27.1997 26.1353C27.4942 26.1353 27.733 25.8964 27.733 25.6019C27.733 25.4441 27.8028 25.2944 27.9237 25.1931C28.0448 25.0915 28.2044 25.0491 28.3596 25.0767C28.626 25.1418 28.8099 25.385 28.7997 25.6589V30.9353Z" fill="#4D556A"/>
<path d="M4.7998 2.1311H5.86647V3.19777H4.7998V2.1311Z" fill="#4D556A"/>
<path d="M6.93359 2.1311H8.00026V3.19777H6.93359V2.1311Z" fill="#4D556A"/>
<path d="M9.06641 2.1311H10.1331V3.19777H9.06641V2.1311Z" fill="#4D556A"/>
<path d="M4.7998 4.26746H22.9331V5.33412H4.7998V4.26746Z" fill="#4D556A"/>
<path d="M4.7998 14.3986H6.93314V15.4652H4.7998V14.3986Z" fill="#4D556A"/>
<path d="M24.5332 12.2675H27.1999V13.3341H24.5332V12.2675Z" fill="#4D556A"/>
</g>
<defs>
<clipPath id="clip0_289_1222">
<rect width="32" height="32" fill="white"/>
</clipPath>
</defs>
</svg>
