<svg width="20" height="20" viewBox="0 0 20 20" fill="none" xmlns="http://www.w3.org/2000/svg">
<g clip-path="url(#clip0_289_4411)">
<path d="M17.7081 19.9984H2.29154C1.02736 19.9984 0 18.9709 0 17.7069V5.62357C0 4.3594 1.02736 3.33203 2.29154 3.33203H5.20823C5.55323 3.33203 5.83323 3.61203 5.83323 3.95703C5.83323 4.30202 5.55323 4.58202 5.20823 4.58202H2.29154C1.71736 4.58202 1.24999 5.04939 1.24999 5.62357V17.7069C1.24999 18.2809 1.71736 18.7484 2.29154 18.7484H17.7081C18.2823 18.7484 18.7498 18.2809 18.7498 17.7069V10.6235C18.7498 10.2785 19.0298 9.99853 19.3748 9.99853C19.7198 9.99853 19.9998 10.2785 19.9998 10.6235V17.7069C19.9998 18.9709 18.9723 19.9984 17.7081 19.9984Z" fill="white"/>
<path d="M5.62408 13.3226C5.5783 13.3226 5.53237 13.3176 5.4866 13.3058C5.20416 13.2401 5 12.9984 5 12.7085V11.4585C5 6.97854 8.64498 3.33356 13.1249 3.33356H13.3332V0.625147C13.3332 0.370176 13.4882 0.140991 13.7249 0.0451666C13.9606 -0.0497421 14.2315 0.00763032 14.4082 0.191802L19.8248 5.81675C20.0581 6.05844 20.0581 6.44174 19.8248 6.68344L14.4082 12.3084C14.2315 12.4926 13.959 12.5493 13.7249 12.455C13.4882 12.3592 13.3332 12.13 13.3332 11.875V9.16678H12.3432C9.72163 9.16678 7.3657 10.6234 6.19414 12.9676C6.08657 13.1842 5.86074 13.3226 5.62408 13.3226ZM13.1249 4.58354C9.62489 4.58354 6.72667 7.21261 6.30248 10.6C7.81736 8.91013 9.98988 7.91679 12.3432 7.91679H13.9582C14.3032 7.91679 14.5832 8.19679 14.5832 8.54179V10.3251L18.5073 6.25009L14.5832 2.17512V3.95855C14.5832 4.30355 14.3032 4.58354 13.9582 4.58354H13.1249Z" fill="white"/>
</g>
<defs>
<clipPath id="clip0_289_4411">
<rect width="20" height="20" fill="white"/>
</clipPath>
</defs>
</svg>
