<svg width="38" height="34" viewBox="0 0 38 34" fill="none" xmlns="http://www.w3.org/2000/svg">
<path d="M37.4997 11.0775C37.1363 10.6788 36.6217 10.4513 36.0821 10.4513H1.91782C1.37835 10.4513 0.863612 10.6788 0.500191 11.0775C0.13677 11.4762 -0.0417761 12.0097 0.0082782 12.5469L1.83114 32.1273C1.923 33.1135 2.75033 33.8673 3.74068 33.8673H34.2592C35.2495 33.8673 36.0769 33.1133 36.1687 32.1273L37.9916 12.5469C38.0417 12.0097 37.8631 11.4762 37.4997 11.0775ZM25.3965 29.8513C25.3952 29.8511 25.394 29.8511 25.3927 29.8513H12.6074C11.5482 29.8513 10.6896 28.9925 10.6896 27.9335C10.6896 25.3292 12.8084 23.2104 15.4127 23.2104H16.7891C15.3736 22.4283 14.4124 20.9205 14.4124 19.1922C14.4124 16.6627 16.4704 14.6045 19.0001 14.6045C21.5299 14.6045 23.5879 16.6625 23.5879 19.1922C23.5879 20.9205 22.6267 22.4283 21.2111 23.2104H22.5875C25.1388 23.2104 27.224 25.2438 27.308 27.7751C27.3122 27.8273 27.3145 27.8802 27.3145 27.9335C27.3143 28.9927 26.4557 29.8513 25.3965 29.8513ZM34.3104 6.881C34.3104 7.67554 33.6664 8.31934 32.8721 8.31934H5.128C4.33366 8.31934 3.68966 7.67554 3.68966 6.881C3.68966 6.08646 4.33366 5.44266 5.128 5.44266H32.8721C33.6664 5.44266 34.3104 6.08646 34.3104 6.881ZM30.5132 1.57506C30.5132 2.3696 29.8692 3.0134 29.0748 3.0134H8.92522C8.13088 3.0134 7.48688 2.3696 7.48688 1.57506C7.48688 0.78052 8.13088 0.136719 8.92522 0.136719H29.0747C29.8692 0.136719 30.5132 0.78052 30.5132 1.57506Z" fill="#FFA217"/>
</svg>
