<svg width="16" height="10" viewBox="0 0 16 10" fill="none" xmlns="http://www.w3.org/2000/svg">
<path d="M0.000275509 1.17618C-0.00492563 0.946907 0.0636256 0.721754 0.196504 0.532029C0.329383 0.342304 0.520021 0.197434 0.741744 0.11756C0.963468 0.0376862 1.20532 0.0267775 1.43373 0.0863502C1.66214 0.145923 1.86565 0.273017 2.01612 0.449963L7.9816 7.20145L13.945 0.449963C14.0378 0.327561 14.1556 0.225052 14.2911 0.148855C14.4266 0.0726593 14.577 0.0244179 14.7327 0.00715143C14.8883 -0.010115 15.0459 0.00396594 15.1957 0.0485124C15.3455 0.0930588 15.4842 0.167111 15.6032 0.266031C15.7221 0.364952 15.8185 0.48661 15.8867 0.623387C15.9548 0.760164 15.9931 0.909113 15.9992 1.06091C16.0052 1.2127 15.9789 1.36407 15.9218 1.50553C15.8648 1.64699 15.7782 1.7755 15.6675 1.88301L8.84619 9.61285C8.73935 9.73423 8.60673 9.83171 8.45727 9.89855C8.30782 9.96539 8.14514 10 7.98055 10C7.81596 10 7.65328 9.96539 7.50383 9.89855C7.35437 9.83171 7.22162 9.73423 7.11478 9.61285L0.28694 1.88301C0.108053 1.68774 0.00635071 1.43729 1.2996e-05 1.17618H0.000275509Z" fill="#86C255"/>
</svg>
