<svg width="34" height="34" viewBox="0 0 34 34" fill="none" xmlns="http://www.w3.org/2000/svg">
<g clip-path="url(#clip0_289_10572)">
<path d="M13.3663 18.7746C12.5604 17.8962 12.0676 16.7263 12.0676 15.4431C12.0676 12.7232 14.2804 10.5104 17.0003 10.5104C19.7203 10.5104 21.9331 12.7232 21.9331 15.4431C21.9331 16.7263 21.4402 17.8962 20.6343 18.7746C23.3338 19.6799 25.3596 22.0664 25.7419 24.964H34V5.92188C34 5.37177 33.554 4.92578 33.0039 4.92578H13.952C14.0045 5.29467 14.0322 5.67146 14.0322 6.05462C14.0322 10.4543 10.4529 14.0337 6.0532 14.0337C3.63475 14.0337 1.46446 12.9519 0 11.2471V24.964H8.25881C8.64105 22.0664 10.6669 19.6799 13.3663 18.7746Z" fill="#FF6464"/>
<path d="M17.0011 18.382C18.6251 18.382 19.9416 17.0655 19.9416 15.4415C19.9416 13.8175 18.6251 12.501 17.0011 12.501C15.3771 12.501 14.0605 13.8175 14.0605 15.4415C14.0605 17.0655 15.3771 18.382 17.0011 18.382Z" fill="#FF6464"/>
<path d="M0 26.957V33.0062C0 33.5563 0.445984 34.0023 0.996094 34.0023H33.0039C33.554 34.0023 34 33.5563 34 33.0062V26.957H0ZM5.04688 31.343C4.48846 31.343 4.07495 30.8866 4.05078 30.3469C4.02668 29.8089 4.52585 29.3508 5.04688 29.3508C5.60529 29.3508 6.0188 29.8072 6.04297 30.3469C6.06707 30.8848 5.5679 31.343 5.04688 31.343ZM15.1213 29.3508H18.8794C19.4295 29.3508 19.8755 29.7968 19.8755 30.3469C19.8755 30.897 19.4295 31.343 18.8794 31.343H15.1213C14.5712 31.343 14.1252 30.897 14.1252 30.3469C14.1252 29.7968 14.5712 29.3508 15.1213 29.3508ZM8.36533 31.343C7.80692 31.343 7.39341 30.8866 7.36923 30.3469C7.34513 29.8089 7.8443 29.3508 8.36533 29.3508C8.92374 29.3508 9.33725 29.8072 9.36142 30.3469C9.38546 30.8848 8.88635 31.343 8.36533 31.343Z" fill="#FF6464"/>
<path d="M18.2319 20.375H15.7706C13.0315 20.375 10.7465 22.3577 10.2754 24.9631H23.7272C23.256 22.3576 20.9711 20.375 18.2319 20.375Z" fill="#FF6464"/>
<path d="M6.0532 12.1065C9.39097 12.1065 12.1065 9.39097 12.1065 6.0532C12.1065 2.71548 9.39097 0 6.0532 0C2.71548 0 0 2.71548 0 6.05326C0 9.39097 2.71548 12.1065 6.0532 12.1065ZM3.53387 5.47579C3.92288 5.08679 4.55354 5.08679 4.94255 5.47579L5.31934 5.85265L7.03123 4.14076C7.42017 3.75175 8.05089 3.75175 8.4399 4.14076C8.82891 4.52977 8.82891 5.16043 8.4399 5.54944L6.02371 7.96576C5.83691 8.15256 5.58357 8.25748 5.31941 8.25748C5.05518 8.25748 4.80184 8.1525 4.61504 7.9657L3.53387 6.88447C3.14487 6.49553 3.14487 5.8648 3.53387 5.47579Z" fill="#FF6464"/>
</g>
<defs>
<clipPath id="clip0_289_10572">
<rect width="34" height="34" fill="white"/>
</clipPath>
</defs>
</svg>
