<svg width="49" height="49" viewBox="0 0 49 49" fill="none" xmlns="http://www.w3.org/2000/svg">
<path d="M39.8125 5.35901H9.1875C7.96916 5.35901 6.80072 5.84299 5.93923 6.70449C5.07773 7.56598 4.59375 8.73442 4.59375 9.95276V39.0465C4.59375 40.2648 5.07773 41.4333 5.93923 42.2948C6.80072 43.1563 7.96916 43.6403 9.1875 43.6403H39.8125C41.0308 43.6403 42.1993 43.1563 43.0608 42.2948C43.9223 41.4333 44.4062 40.2648 44.4062 39.0465V9.95276C44.4062 8.73442 43.9223 7.56598 43.0608 6.70449C42.1993 5.84299 41.0308 5.35901 39.8125 5.35901ZM12.3648 21.261C12.2495 20.9807 12.2199 20.6725 12.2799 20.3754C12.3399 20.0782 12.4867 19.8056 12.7017 19.592L17.2955 14.9982C17.5884 14.7474 17.9652 14.6163 18.3506 14.6312C18.736 14.6461 19.1015 14.8058 19.3742 15.0785C19.6469 15.3512 19.8067 15.7168 19.8216 16.1022C19.8365 16.4876 19.7054 16.8644 19.4545 17.1573L17.4792 19.1403H34.4531C34.8592 19.1403 35.2487 19.3016 35.5359 19.5888C35.823 19.8759 35.9844 20.2654 35.9844 20.6715C35.9844 21.0776 35.823 21.4671 35.5359 21.7543C35.2487 22.0414 34.8592 22.2028 34.4531 22.2028H13.7812C13.4785 22.2034 13.1824 22.1143 12.9303 21.9466C12.6782 21.779 12.4814 21.5404 12.3648 21.261ZM37.0639 30.1729L32.4702 34.7667C32.3329 34.927 32.164 35.0571 31.974 35.1491C31.784 35.241 31.5771 35.2926 31.3662 35.3008C31.1553 35.3089 30.945 35.2734 30.7485 35.1964C30.552 35.1194 30.3736 35.0026 30.2243 34.8534C30.0751 34.7042 29.9584 34.5257 29.8814 34.3292C29.8044 34.1327 29.7689 33.9224 29.777 33.7116C29.7851 33.5007 29.8368 33.2937 29.9287 33.1038C30.0206 32.9138 30.1508 32.7449 30.3111 32.6076L32.2864 30.6246H15.3125C14.9064 30.6246 14.5169 30.4633 14.2297 30.1761C13.9426 29.889 13.7812 29.4995 13.7812 29.0934C13.7812 28.6873 13.9426 28.2978 14.2297 28.0106C14.5169 27.7235 14.9064 27.5621 15.3125 27.5621H35.9844C36.2871 27.5615 36.5833 27.6506 36.8354 27.8182C37.0875 27.9859 37.2842 28.2244 37.4008 28.5039C37.5161 28.7842 37.5457 29.0924 37.4857 29.3895C37.4258 29.6866 37.2789 29.9593 37.0639 30.1729Z" fill="#FF6464"/>
</svg>
