<svg width="44" height="44" viewBox="0 0 44 44" fill="none" xmlns="http://www.w3.org/2000/svg">
<path d="M29.8203 15.6406C22.0016 15.6406 15.6406 22.0016 15.6406 29.8203C15.6406 37.6389 22.0016 43.9999 29.8203 43.9999C37.639 43.9999 44 37.6389 44 29.8203C44 22.0016 37.639 15.6406 29.8203 15.6406ZM29.8203 28.5312C31.9528 28.5312 33.6875 30.2659 33.6875 32.3984C33.6875 34.0767 32.6066 35.4942 31.1094 36.0281V38.8437H28.5312V36.0281C27.034 35.4942 25.9531 34.0767 25.9531 32.3984H28.5312C28.5312 33.1096 29.1091 33.6874 29.8203 33.6874C30.5315 33.6874 31.1094 33.1096 31.1094 32.3984C31.1094 31.6872 30.5315 31.1093 29.8203 31.1093C27.6879 31.1093 25.9531 29.3746 25.9531 27.2421C25.9531 25.5638 27.034 24.1463 28.5312 23.6124V20.7968H31.1094V23.6124C32.6066 24.1463 33.6875 25.5638 33.6875 27.2421H31.1094C31.1094 26.5309 30.5315 25.9531 29.8203 25.9531C29.1091 25.9531 28.5312 26.5309 28.5312 27.2421C28.5312 27.9533 29.1091 28.5312 29.8203 28.5312Z" fill="#FF6464"/>
<path d="M14.3516 15.6406C22.3025 15.6406 28.5312 12.243 28.5312 7.90625C28.5312 3.5695 22.3025 0 14.3516 0C6.40063 0 0 3.5695 0 7.90625C0 12.243 6.40063 15.6406 14.3516 15.6406Z" fill="#FF6464"/>
<path d="M0 29.0091V31.1095C0 35.4462 6.40063 38.8438 14.3516 38.8438C14.8026 38.8438 15.2396 38.8023 15.6836 38.7806C14.6948 37.2259 13.9574 35.5008 13.5231 33.6566C7.77348 33.4978 2.78111 31.731 0 29.0091Z" fill="#FF6464"/>
<path d="M13.1245 31.0439C13.0949 30.6385 13.0625 30.2334 13.0625 29.8205C13.0625 28.4767 13.2386 27.1761 13.5389 25.923C7.78207 25.767 2.7836 23.9993 0 21.2748V23.3752C0 27.4819 5.78033 30.7093 13.1245 31.0439Z" fill="#FF6464"/>
<path d="M14.3516 23.3754C14.3529 23.3754 14.3541 23.3752 14.3555 23.3752C15.2057 21.3433 16.4416 19.5116 17.9763 17.977C16.8121 18.1241 15.609 18.2191 14.3516 18.2191C8.23135 18.2191 2.91552 16.3941 0 13.5406V15.641C0 19.9778 6.40062 23.3754 14.3516 23.3754Z" fill="#FF6464"/>
</svg>
