<svg width="45" height="45" viewBox="0 0 45 45" fill="none" xmlns="http://www.w3.org/2000/svg">
<g clip-path="url(#clip0_289_9364)">
<path d="M30.1029 16.3708C22.2103 16.3708 15.7891 22.792 15.7891 30.6846C15.7891 38.5773 22.2103 44.9985 30.1029 44.9985C37.9956 44.9985 44.4168 38.5773 44.4168 30.6846C44.4168 22.792 37.9956 16.3708 30.1029 16.3708ZM30.1029 29.3834C32.2556 29.3834 34.0067 31.1345 34.0067 33.2871C34.0067 34.9814 32.9156 36.4122 31.4042 36.9512V39.7934H28.8017V36.9512C27.2903 36.4122 26.1991 34.9814 26.1991 33.2871H28.8017C28.8017 34.0051 29.385 34.5884 30.1029 34.5884C30.8209 34.5884 31.4042 34.0051 31.4042 33.2871C31.4042 32.5692 30.8209 31.9859 30.1029 31.9859C27.9503 31.9859 26.1991 30.2347 26.1991 28.0821C26.1991 26.3879 27.2903 24.957 28.8017 24.418V21.5758H31.4042V24.418C32.9156 24.957 34.0067 26.3879 34.0067 28.0821H31.4042C31.4042 27.3641 30.8209 26.7808 30.1029 26.7808C29.385 26.7808 28.8017 27.3641 28.8017 28.0821C28.8017 28.8 29.385 29.3834 30.1029 29.3834Z" fill="#658C3D"/>
<path d="M14.4874 16.3708C22.5135 16.3708 28.8012 12.941 28.8012 8.56324C28.8012 4.18546 22.5135 0.582184 14.4874 0.582184C6.46119 0.582184 0 4.18546 0 8.56324C0 12.941 6.46119 16.3708 14.4874 16.3708Z" fill="#658C3D"/>
<path d="M0 29.866V31.9863C0 36.3641 6.46119 39.7938 14.4874 39.7938C14.9426 39.7938 15.3838 39.7519 15.832 39.73C14.8338 38.1606 14.0894 36.4191 13.6511 34.5575C7.84703 34.3972 2.80743 32.6137 0 29.866Z" fill="#658C3D"/>
<path d="M13.2486 31.92C13.2188 31.5107 13.1861 31.1019 13.1861 30.685C13.1861 29.3285 13.3639 28.0156 13.667 26.7506C7.85571 26.5932 2.80994 24.8087 0 22.0585V24.1787C0 28.3243 5.83502 31.5822 13.2486 31.92Z" fill="#658C3D"/>
<path d="M14.4874 24.1788C14.4887 24.1788 14.4899 24.1787 14.4914 24.1787C15.3496 22.1275 16.5971 20.2785 18.1464 18.7293C16.9712 18.8779 15.7567 18.9738 14.4874 18.9738C8.30924 18.9738 2.9431 17.1315 0 14.251V16.3713C0 20.7491 6.46119 24.1788 14.4874 24.1788Z" fill="#658C3D"/>
</g>
<defs>
<clipPath id="clip0_289_9364">
<rect width="44.4163" height="44.4163" fill="white" transform="translate(0 0.582184)"/>
</clipPath>
</defs>
</svg>
