<svg width="53" height="53" viewBox="0 0 53 53" fill="none" xmlns="http://www.w3.org/2000/svg">
<path d="M42.254 6.6821H9.75052C8.45745 6.6821 7.21734 7.19577 6.30301 8.1101C5.38867 9.02444 4.875 10.2645 4.875 11.5576V42.4359C4.875 43.729 5.38867 44.9691 6.30301 45.8834C7.21734 46.7977 8.45745 47.3114 9.75052 47.3114H42.254C43.547 47.3114 44.7871 46.7977 45.7015 45.8834C46.6158 44.9691 47.1295 43.729 47.1295 42.4359V11.5576C47.1295 10.2645 46.6158 9.02444 45.7015 8.1101C44.7871 7.19577 43.547 6.6821 42.254 6.6821ZM13.1227 23.5595C13.0003 23.262 12.9689 22.9349 13.0326 22.6195C13.0962 22.3042 13.2521 22.0148 13.4803 21.7881L18.3558 16.9126C18.6667 16.6463 19.0666 16.5072 19.4756 16.523C19.8847 16.5388 20.2726 16.7083 20.5621 16.9978C20.8515 17.2872 21.0211 17.6752 21.0369 18.0842C21.0527 18.4932 20.9135 18.8932 20.6473 19.2041L18.5508 21.3087H36.5659C36.9969 21.3087 37.4103 21.4799 37.715 21.7847C38.0198 22.0894 38.191 22.5028 38.191 22.9338C38.191 23.3648 38.0198 23.7782 37.715 24.083C37.4103 24.3878 36.9969 24.559 36.5659 24.559H14.626C14.3047 24.5597 13.9904 24.4651 13.7229 24.2872C13.4553 24.1093 13.2465 23.8561 13.1227 23.5595ZM39.3368 33.018L34.4613 37.8935C34.3156 38.0637 34.1363 38.2018 33.9347 38.2994C33.733 38.3969 33.5134 38.4517 33.2896 38.4604C33.0658 38.469 32.8426 38.4313 32.634 38.3496C32.4255 38.2679 32.2361 38.144 32.0777 37.9856C31.9193 37.8272 31.7954 37.6378 31.7137 37.4293C31.632 37.2207 31.5943 36.9975 31.6029 36.7737C31.6116 36.5499 31.6664 36.3303 31.7639 36.1286C31.8615 35.927 31.9996 35.7477 32.1698 35.602L34.2662 33.4974H16.2512C15.8202 33.4974 15.4068 33.3262 15.102 33.0214C14.7973 32.7167 14.626 32.3033 14.626 31.8723C14.626 31.4412 14.7973 31.0279 15.102 30.7231C15.4068 30.4183 15.8202 30.2471 16.2512 30.2471H38.191C38.5123 30.2464 38.8266 30.341 39.0942 30.5189C39.3618 30.6968 39.5706 30.95 39.6943 31.2466C39.8167 31.5441 39.8481 31.8712 39.7845 32.1866C39.7208 32.5019 39.565 32.7913 39.3368 33.018Z" fill="#6778AE"/>
</svg>
