<svg width="50" height="50" viewBox="0 0 50 50" fill="none" xmlns="http://www.w3.org/2000/svg">
<path d="M47.9173 39.5826C47.9173 40.1351 47.6978 40.665 47.3071 41.0557C46.9164 41.4464 46.3865 41.6659 45.834 41.6659H20.834C20.2814 41.6659 19.7515 41.4464 19.3608 41.0557C18.9701 40.665 18.7507 40.1351 18.7507 39.5826C18.7507 36.2674 20.0676 33.0879 22.4118 30.7437C24.756 28.3995 27.9354 27.0826 31.2507 27.0826H35.4173C38.7325 27.0826 41.9119 28.3995 44.2562 30.7437C46.6004 33.0879 47.9173 36.2674 47.9173 39.5826ZM33.334 8.33258C31.6858 8.33258 30.0746 8.82132 28.7042 9.737C27.3338 10.6527 26.2657 11.9542 25.635 13.4769C25.0043 14.9996 24.8392 16.6752 25.1608 18.2917C25.4823 19.9082 26.276 21.393 27.4414 22.5585C28.6069 23.7239 30.0917 24.5176 31.7082 24.8391C33.3247 25.1607 35.0003 24.9956 36.523 24.3649C38.0457 23.7342 39.3472 22.6661 40.2629 21.2957C41.1786 19.9253 41.6673 18.3141 41.6673 16.6659C41.6673 14.4558 40.7893 12.3362 39.2265 10.7734C37.6637 9.21055 35.5441 8.33258 33.334 8.33258ZM14.584 8.33258C12.9358 8.33258 11.3246 8.82132 9.95423 9.737C8.58382 10.6527 7.51572 11.9542 6.88499 13.4769C6.25426 14.9996 6.08923 16.6752 6.41077 18.2917C6.73232 19.9082 7.52599 21.393 8.69143 22.5585C9.85686 23.7239 11.3417 24.5176 12.9582 24.8391C14.5747 25.1607 16.2503 24.9956 17.773 24.3649C19.2957 23.7342 20.5972 22.6661 21.5129 21.2957C22.4286 19.9253 22.9173 18.3141 22.9173 16.6659C22.9173 14.4558 22.0393 12.3362 20.4765 10.7734C18.9137 9.21055 16.7941 8.33258 14.584 8.33258ZM14.584 39.5826C14.5809 37.3943 15.012 35.2271 15.8524 33.2066C16.6928 31.1861 17.9257 29.3524 19.4798 27.8117C18.208 27.3316 16.8601 27.0846 15.5007 27.0826H13.6673C10.5969 27.0881 7.65385 28.3102 5.48275 30.4813C3.31164 32.6524 2.08949 35.5955 2.08398 38.6659V39.5826C2.08398 40.1351 2.30348 40.665 2.69418 41.0557C3.08488 41.4464 3.61478 41.6659 4.16732 41.6659H14.959C14.7164 40.9978 14.5896 40.2933 14.584 39.5826Z" fill="#FFA217"/>
</svg>
